<?xml version="1.0" standalone="no"?><!DOCTYPE svg PUBLIC "-//W3C//DTD SVG 1.1//EN" "http://www.w3.org/Graphics/SVG/1.1/DTD/svg11.dtd"><svg width="100%" height="100%" viewBox="0 0 35 35" version="1.1" xmlns="http://www.w3.org/2000/svg" xmlns:xlink="http://www.w3.org/1999/xlink" xml:space="preserve" style="fill-rule:evenodd;clip-rule:evenodd;stroke-linejoin:round;stroke-miterlimit:1.41421;"><rect x="-1" y="-27" width="41" height="33" style="fill:#c69c70;"/><rect x="-5" y="28" width="41" height="36" style="fill:#c69c70;"/><path id="facebook-icon" d="M21.076,28.359l6.809,0c0.814,0 1.474,-0.66 1.474,-1.474l0,-23.77c0,-0.814 -0.66,-1.474 -1.474,-1.474l-23.77,0c-0.814,0 -1.474,0.66 -1.474,1.474l0,23.77c0,0.814 0.66,1.474 1.474,1.474l12.797,0l0,-10.345l-3.482,0l0,-4.032l3.482,0l0,-2.974c0,-3.451 2.108,-5.33 5.186,-5.33c1.475,0 2.743,0.11 3.112,0.159l0,3.606l-2.135,0.001c-1.675,0 -1.999,0.796 -1.999,1.963l0,2.575l3.993,0l-0.52,4.032l-3.473,0l0,10.345Z" style="fill:#c69c70;fill-rule:nonzero;"/><rect x="29" y="3" width="43" height="33" style="fill:#c69c70;"/><rect x="-32" y="1" width="41" height="33" style="fill:#c69c70;"/></svg>