<?xml version="1.0" standalone="no"?><!DOCTYPE svg PUBLIC "-//W3C//DTD SVG 1.1//EN" "http://www.w3.org/Graphics/SVG/1.1/DTD/svg11.dtd"><svg width="100%" height="100%" viewBox="0 0 125 125" version="1.1" xmlns="http://www.w3.org/2000/svg" xmlns:xlink="http://www.w3.org/1999/xlink" xml:space="preserve" style="fill-rule:evenodd;clip-rule:evenodd;stroke-linejoin:round;stroke-miterlimit:1.41421;"><rect x="0" y="0" width="125.5" height="125.5" style="fill:#cf0a2c;"/><g><path d="M44.752,31.699c0.229,1.153 0.454,2.771 0.675,4.852c-0.04,0.082 -0.083,0.123 -0.131,0.123c-0.055,0 -0.114,-0.041 -0.177,-0.123c-0.545,-1.144 -1.066,-2.014 -1.563,-2.612c-0.497,-0.597 -0.996,-1.022 -1.498,-1.275c-0.501,-0.252 -1.363,-0.378 -2.586,-0.378c-1.153,0 -2.064,0.087 -2.735,0.262c-0.063,0.104 -0.095,0.294 -0.095,0.572c0,0.072 -0.008,0.201 -0.024,0.386c-0.078,0.825 -0.118,3.06 -0.118,6.707c0,0.155 0.008,0.371 0.024,0.649c0.6,0.031 1.01,0.047 1.231,0.047c0.995,0 1.715,-0.194 2.161,-0.58c0.446,-0.386 0.834,-1.218 1.166,-2.496c0.055,-0.216 0.134,-0.324 0.237,-0.324c0.15,0 0.225,0.149 0.225,0.448l-0.048,0.618c-0.063,0.814 -0.094,1.654 -0.094,2.519c0,1.401 0.019,2.663 0.059,3.786c0,0.35 -0.075,0.525 -0.225,0.525c-0.111,0 -0.186,-0.123 -0.225,-0.37c-0.166,-1.216 -0.513,-2.092 -1.042,-2.628c-0.529,-0.535 -1.677,-0.803 -3.445,-0.803c-0.024,0.752 -0.036,1.968 -0.036,3.647c0,2.173 0.059,3.554 0.178,4.141c0.118,0.588 0.402,1.054 0.852,1.399c0.45,0.345 1.212,0.518 2.285,0.518c3.07,0 5.051,-1.381 5.943,-4.142c0.111,-0.34 0.225,-0.51 0.344,-0.51c0.126,0 0.189,0.113 0.189,0.34c0,0.124 -0.02,0.258 -0.059,0.402c-0.048,0.196 -0.162,0.927 -0.343,2.194c-0.04,0.268 -0.19,1.072 -0.45,2.411l-4.961,-0.016c-0.71,0 -1.754,-0.038 -3.131,-0.116c-1.378,-0.077 -2.597,-0.118 -3.658,-0.123c-1.062,-0.005 -1.616,-0.034 -1.664,-0.085c-0.047,-0.052 -0.071,-0.108 -0.071,-0.17c0,-0.206 0.13,-0.309 0.391,-0.309c0.876,0 1.452,-0.304 1.728,-0.912c0.277,-0.608 0.415,-2.086 0.415,-4.435l-0.012,-3.168l0.035,-2.967c0,-0.597 -0.025,-1.728 -0.077,-3.392c-0.051,-1.663 -0.098,-2.614 -0.142,-2.851c-0.043,-0.237 -0.165,-0.471 -0.367,-0.703c-0.201,-0.232 -0.645,-0.466 -1.331,-0.703c-0.206,-0.072 -0.308,-0.186 -0.308,-0.34c0,-0.186 0.138,-0.278 0.414,-0.278l2.415,0.17c0.852,0.051 2.948,0.077 6.287,0.077c2.194,0 3.314,0.005 3.362,0.016Z" style="fill:#fff;fill-rule:nonzero;stroke-width:0.49px;stroke:#fff;stroke-opacity:0.54902;"/><path d="M55.573,47.646c0,1.195 -0.34,2.223 -1.018,3.083c-0.679,0.86 -1.484,1.29 -2.416,1.29c-0.552,0 -1.211,-0.232 -1.977,-0.695c-0.418,-0.247 -0.667,-0.371 -0.746,-0.371c-0.134,0 -0.252,0.108 -0.355,0.324c-0.126,0.289 -0.244,0.433 -0.355,0.433c-0.095,0 -0.154,-0.147 -0.178,-0.44c-0.023,-0.294 -0.039,-0.961 -0.047,-2.001c-0.008,-0.897 -0.02,-1.474 -0.035,-1.731c0,-0.381 0.075,-0.572 0.224,-0.572c0.087,0 0.154,0.098 0.202,0.294c0.308,1.174 0.74,2.171 1.296,2.99c0.557,0.819 1.21,1.228 1.96,1.228c0.528,0 0.998,-0.213 1.408,-0.641c0.411,-0.427 0.616,-1.007 0.616,-1.738c0,-1.134 -0.754,-2.138 -2.261,-3.014c-1.034,-0.607 -1.725,-1.05 -2.072,-1.329c-0.347,-0.278 -0.62,-0.654 -0.817,-1.128c-0.197,-0.474 -0.296,-0.989 -0.296,-1.545c0,-1.061 0.308,-1.95 0.924,-2.666c0.615,-0.716 1.361,-1.074 2.237,-1.074c0.647,0 1.357,0.263 2.131,0.789c0.126,0.082 0.237,0.123 0.331,0.123c0.079,0 0.166,-0.082 0.261,-0.247c0.095,-0.155 0.17,-0.232 0.225,-0.232c0.071,0 0.126,0.039 0.166,0.116c0.039,0.077 0.082,0.531 0.13,1.36c0.047,0.829 0.071,1.511 0.071,2.047c0,0.33 -0.067,0.495 -0.201,0.495c-0.119,0 -0.213,-0.15 -0.284,-0.448c-0.064,-0.279 -0.253,-0.809 -0.569,-1.592c-0.315,-0.783 -0.661,-1.283 -1.036,-1.499c-0.375,-0.216 -0.743,-0.324 -1.107,-0.324c-0.568,0 -1.033,0.18 -1.397,0.54c-0.363,0.361 -0.544,0.83 -0.544,1.407c0,0.36 0.075,0.685 0.225,0.973c0.15,0.289 0.29,0.505 0.42,0.649c0.13,0.144 0.882,0.618 2.255,1.422c0.853,0.505 1.413,0.894 1.682,1.167c0.268,0.272 0.493,0.641 0.674,1.104c0.182,0.464 0.273,0.948 0.273,1.453Z" style="fill:#fff;fill-rule:nonzero;stroke-width:0.49px;stroke:#fff;stroke-opacity:0.54902;"/><path d="M61.279,39.889c-0.11,2.276 -0.166,4.512 -0.166,6.706c0,1.69 0.154,2.792 0.462,3.307c0.308,0.515 0.75,0.773 1.326,0.773c0.418,0 0.88,-0.201 1.385,-0.603c0.182,-0.144 0.292,-0.216 0.332,-0.216c0.102,0 0.154,0.072 0.154,0.216c0,0.247 -0.281,0.639 -0.841,1.175c-0.561,0.535 -1.247,0.803 -2.06,0.803c-0.805,0 -1.409,-0.366 -1.812,-1.097c-0.402,-0.731 -0.603,-1.824 -0.603,-3.276c0,-1.514 0.071,-4.11 0.213,-7.788c-0.055,-0.021 -0.43,-0.057 -1.125,-0.109l-0.71,-0.061c-0.174,-0.011 -0.261,-0.088 -0.261,-0.232c0,-0.134 0.099,-0.242 0.296,-0.325c0.324,-0.154 0.869,-0.607 1.634,-1.359c0.766,-0.753 1.212,-1.814 1.338,-3.184c0.031,-0.36 0.118,-0.541 0.26,-0.541c0.142,0 0.213,0.144 0.213,0.433c0,0.093 -0.003,0.191 -0.011,0.294c-0.024,0.401 -0.036,0.865 -0.036,1.39l0.012,2.411l2.593,-0.046c0.442,0 0.671,0.067 0.686,0.201c-0.007,0.473 -0.067,0.772 -0.177,0.896c-0.411,0 -1.445,0.077 -3.102,0.232Z" style="fill:#fff;fill-rule:nonzero;stroke-width:0.49px;stroke:#fff;stroke-opacity:0.54902;"/><path d="M68.749,38.761c0.04,0.669 0.075,2.606 0.107,5.81c0.016,1.999 0.055,3.33 0.118,3.995c0.063,0.664 0.263,1.213 0.598,1.645c0.336,0.433 0.72,0.649 1.154,0.649c0.569,0 1.139,-0.345 1.711,-1.035c0.572,-0.69 0.926,-1.43 1.06,-2.217c0.134,-0.789 0.201,-2.599 0.201,-5.432c0,-1.319 -0.063,-2.118 -0.189,-2.396c-0.127,-0.278 -0.435,-0.437 -0.924,-0.479c-0.181,-0.01 -0.272,-0.097 -0.272,-0.262c0,-0.114 0.027,-0.188 0.083,-0.224c0.055,-0.036 0.233,-0.054 0.532,-0.054l2.368,0c0.071,1.123 0.107,2.379 0.107,3.77l-0.095,5.811c0,1.195 0.077,1.947 0.231,2.255c0.154,0.31 0.396,0.485 0.728,0.526c0.205,0.041 0.308,0.144 0.308,0.309c0,0.185 -0.201,0.278 -0.604,0.278l-1.871,0c-0.323,0 -0.485,-0.139 -0.485,-0.417c0,-0.082 0.004,-0.175 0.012,-0.278c0.024,-0.309 0.036,-0.624 0.036,-0.943c0,-0.268 -0.012,-0.659 -0.036,-1.174c-0.6,1.009 -1.223,1.767 -1.871,2.271c-0.647,0.505 -1.322,0.757 -2.024,0.757c-0.6,0 -1.103,-0.19 -1.509,-0.571c-0.407,-0.382 -0.675,-0.842 -0.806,-1.383c-0.13,-0.541 -0.219,-1.888 -0.266,-4.041c-0.047,-2.153 -0.071,-3.843 -0.071,-5.069c0,-0.669 -0.028,-1.087 -0.083,-1.252c-0.055,-0.164 -0.229,-0.257 -0.521,-0.278c-0.316,-0.031 -0.473,-0.134 -0.473,-0.309c0,-0.175 0.189,-0.262 0.568,-0.262l2.178,0Z" style="fill:#fff;fill-rule:nonzero;stroke-width:0.49px;stroke:#fff;stroke-opacity:0.54902;"/><path d="M87.621,30.586c0.007,2.205 0.011,5.182 0.011,8.932l-0.094,9.812c0,1.082 0.382,1.71 1.148,1.886c0.252,0.061 0.379,0.17 0.379,0.324c0,0.124 -0.046,0.201 -0.136,0.232c-0.091,0.031 -0.614,0.047 -1.569,0.047c-0.489,-0.011 -0.975,-0.021 -1.456,-0.032c-0.024,-0.628 -0.036,-1.081 -0.036,-1.359c0,-0.351 0.012,-0.85 0.036,-1.499c-0.426,1.03 -0.912,1.803 -1.456,2.318c-0.545,0.515 -1.149,0.772 -1.812,0.772c-0.939,0 -1.892,-0.577 -2.859,-1.73c-0.967,-1.154 -1.45,-2.71 -1.45,-4.667c0,-1.906 0.452,-3.56 1.356,-4.961c0.903,-1.401 2.014,-2.101 3.332,-2.101c0.663,0 1.235,0.182 1.717,0.548c0.481,0.366 0.872,0.92 1.172,1.662c0.047,-1.216 0.071,-2.36 0.071,-3.431c0,-3.286 -0.063,-5.11 -0.19,-5.471c-0.126,-0.36 -0.422,-0.577 -0.887,-0.649c-0.293,-0.051 -0.438,-0.149 -0.438,-0.293c0,-0.175 0.185,-0.263 0.556,-0.263l2.605,-0.077ZM85.951,44.432c0,-1.751 -0.227,-3.062 -0.68,-3.933c-0.454,-0.871 -1.139,-1.306 -2.055,-1.306c-0.954,0 -1.673,0.508 -2.154,1.522c-0.482,1.015 -0.723,2.537 -0.723,4.567c0,2.05 0.287,3.518 0.859,4.404c0.572,0.886 1.194,1.329 1.865,1.329c0.67,0 1.319,-0.466 1.947,-1.399c0.627,-0.932 0.941,-2.66 0.941,-5.184Z" style="fill:#fff;fill-rule:nonzero;stroke-width:0.49px;stroke:#fff;stroke-opacity:0.54902;"/><path d="M92.652,30.91c0.3,0 0.568,0.145 0.805,0.433c0.237,0.289 0.355,0.603 0.355,0.943c0,0.401 -0.097,0.747 -0.29,1.035c-0.193,0.289 -0.46,0.433 -0.799,0.433c-0.3,0 -0.568,-0.126 -0.805,-0.379c-0.237,-0.252 -0.355,-0.595 -0.355,-1.027c0,-0.423 0.101,-0.768 0.302,-1.036c0.201,-0.268 0.463,-0.402 0.787,-0.402ZM93.966,38.467l-0.012,3.477l0.024,3.245l0,2.442l-0.012,1.854c0,0.742 0.093,1.213 0.278,1.414c0.186,0.201 0.464,0.312 0.835,0.332c0.434,0.031 0.651,0.15 0.651,0.356c0,0.164 -0.083,0.247 -0.249,0.247c-0.063,0 -0.134,-0.005 -0.213,-0.015c-0.734,-0.124 -1.416,-0.186 -2.048,-0.186c-1.01,0 -1.708,0.041 -2.095,0.124c-0.079,0.02 -0.158,0.03 -0.237,0.03c-0.189,0 -0.284,-0.092 -0.284,-0.278c0,-0.185 0.221,-0.314 0.663,-0.386c0.442,-0.072 0.724,-0.198 0.846,-0.379c0.123,-0.18 0.184,-0.692 0.184,-1.537l0.071,-6.398c0,-1.71 -0.099,-2.722 -0.296,-3.036c-0.197,-0.315 -0.58,-0.482 -1.148,-0.502c-0.19,0 -0.285,-0.083 -0.285,-0.248c0,-0.092 0.032,-0.165 0.095,-0.216c0.063,-0.052 0.533,-0.118 1.409,-0.201c0.876,-0.082 1.484,-0.129 1.823,-0.139Z" style="fill:#fff;fill-rule:nonzero;stroke-width:0.49px;stroke:#fff;stroke-opacity:0.54902;"/><path d="M96.95,45.282c0,-1.813 0.501,-3.41 1.503,-4.791c1.002,-1.38 2.234,-2.07 3.694,-2.07c1.373,0 2.555,0.618 3.546,1.854c0.99,1.236 1.485,2.782 1.485,4.636c0,1.875 -0.521,3.521 -1.563,4.937c-1.041,1.417 -2.257,2.125 -3.646,2.125c-1.373,0 -2.553,-0.652 -3.54,-1.955c-0.986,-1.303 -1.479,-2.882 -1.479,-4.736ZM98.867,45.189c0,1.772 0.314,3.245 0.942,4.42c0.627,1.174 1.402,1.761 2.326,1.761c0.844,0 1.588,-0.551 2.232,-1.653c0.643,-1.103 0.965,-2.565 0.965,-4.389c0,-1.628 -0.31,-3.078 -0.93,-4.35c-0.619,-1.272 -1.423,-1.908 -2.409,-1.908c-0.916,0 -1.666,0.579 -2.249,1.738c-0.584,1.159 -0.877,2.619 -0.877,4.381Z" style="fill:#fff;fill-rule:nonzero;stroke-width:0.49px;stroke:#fff;stroke-opacity:0.54902;"/><path d="M19.825,73.684c0.36,0 1.14,0 1.47,-0.037c0.12,0 0.33,-0.037 0.33,-0.297c0,-0.26 -0.24,-0.334 -0.36,-0.334c-0.75,-0.148 -0.93,-0.185 -1.32,-0.482c-0.749,-0.557 -1.049,-0.779 -1.049,-6.271c0,-0.556 0.18,-3.413 0.15,-4.044c0.659,0.037 1.379,0.111 2.339,0.111c2.009,0 8.337,-0.037 8.337,-6.345c0,-5.677 -4.739,-6.159 -6.808,-6.233l-8.367,0c-0.3,0 -0.6,0 -0.6,0.334c0,0.185 0.06,0.297 0.96,0.519c1.26,0.297 1.53,0.891 1.53,4.49l0,10.055c0,1.15 -0.06,5.492 -0.3,6.271c-0.33,1.113 -0.81,1.261 -1.65,1.521c-0.18,0.037 -0.54,0.148 -0.54,0.408c0,0.334 0.3,0.334 0.48,0.334l5.398,0ZM19.046,61.477c0,-0.854 0.06,-4.638 0.06,-5.417c0,-0.817 -0.06,-4.416 -0.06,-5.158c0.629,-0.185 1.199,-0.334 2.579,-0.334c1.139,0 5.218,-0.037 5.218,4.824c0,1.669 -0.57,3.562 -1.26,4.489c-1.259,1.67 -3.598,1.707 -4.108,1.707c-0.15,0 -2.159,-0.074 -2.429,-0.111Z" style="fill:#fff;fill-rule:nonzero;stroke-width:0.49px;stroke:#fff;stroke-opacity:0.54902;"/><path d="M42.977,73.832c0.24,-1.038 0.72,-3.376 0.72,-4.266c0,-0.149 -0.09,-0.372 -0.27,-0.372c-0.21,0 -0.21,0 -0.6,1.151c-0.9,2.671 -2.849,2.745 -4.318,2.745c-0.51,0 -2.37,0 -2.52,-1.447c-0.059,-0.593 -0.059,-4.341 -0.03,-5.454c1.74,-0.037 3.269,-0.111 3.419,1.558c0.12,1.039 0.12,1.151 0.39,1.151c0.24,0 0.24,-0.26 0.24,-0.631l0,-4.23c0,-0.557 0,-0.742 -0.24,-0.742c-0.24,0 -0.27,0.074 -0.42,0.927c-0.24,1.151 -1.589,1.151 -3.389,1.114c0,-1.076 -0.059,-4.935 0.3,-5.826c0.27,-0.705 0.75,-0.705 2.699,-0.705c1.38,0 2.819,1.522 3.419,3.043c0.09,0.222 0.15,0.297 0.33,0.297c0.06,0 0.24,-0.037 0.24,-0.26l-0.51,-3.859l-10.346,0c-0.3,0 -0.6,0 -0.6,0.371c0,0.223 0.09,0.334 0.39,0.371c0.69,0.037 1.26,0.074 1.649,1.188c0.3,1.001 0.3,3.153 0.3,5.491c0,1.558 0,5.269 -0.36,6.456c-0.27,0.891 -0.989,1.002 -1.349,1.076c-0.72,0.111 -0.81,0.111 -0.81,0.371c0,0.334 0.27,0.334 0.66,0.334l2.189,0c0.78,0 0.9,0 1.71,0.037c0.449,0.037 2.309,0.074 2.849,0.111l4.258,0Z" style="fill:#fff;fill-rule:nonzero;stroke-width:0.49px;stroke:#fff;stroke-opacity:0.54902;"/><path d="M58.421,73.684c0.48,0 0.72,0 0.72,-0.334c0,-0.222 -0.27,-0.26 -0.72,-0.334c-1.649,-0.222 -1.889,-1.261 -2.009,-2.486c-0.39,-3.525 -0.48,-4.304 -3.299,-5.343c2.07,-1.113 3.359,-1.781 3.359,-3.933c0,-3.302 -3.389,-3.302 -4.108,-3.302c-0.27,0 -1.05,0.037 -1.83,0.074c-0.779,0.037 -1.559,0.074 -1.859,0.074l-2.639,0c-0.93,0 -1.02,0 -1.02,0.334c0,0.112 0.03,0.223 0.12,0.26c0.12,0.074 0.69,0.111 0.81,0.148c1.199,0.223 1.349,0.817 1.349,5.38c0,0.965 -0.06,5.752 -0.18,6.865c-0.179,1.744 -0.599,1.781 -1.769,1.966c-0.3,0.037 -0.33,0.149 -0.33,0.297c0,0.334 0.24,0.334 0.57,0.334l5.248,0c0.42,0 0.69,0 0.69,-0.297c0,-0.259 -0.15,-0.334 -0.42,-0.334c-1.709,0 -1.709,-1.892 -1.709,-2.523c0,-0.668 0.12,-3.933 0.12,-4.712c0.329,0 0.839,-0.074 1.169,-0.074c3.119,0 3.209,3.042 3.269,4.526c0.06,2.375 0.45,2.82 0.9,3.414l3.568,0ZM49.665,59.065c0.449,-0.148 0.899,-0.334 1.619,-0.334c1.949,0 2.909,1.484 2.909,3.043c0,2.894 -2.669,3.191 -3.569,3.191c-0.36,0 -0.929,-0.075 -1.109,-0.112l0.15,-5.788Z" style="fill:#fff;fill-rule:nonzero;stroke-width:0.49px;stroke:#fff;stroke-opacity:0.54902;"/><path d="M71.407,73.832c0.24,-1.038 0.719,-3.376 0.719,-4.266c0,-0.149 -0.09,-0.372 -0.269,-0.372c-0.21,0 -0.21,0 -0.6,1.151c-0.9,2.671 -2.849,2.745 -4.319,2.745c-0.51,0 -2.369,0 -2.519,-1.447c-0.06,-0.593 -0.06,-4.341 -0.03,-5.454c1.74,-0.037 3.269,-0.111 3.419,1.558c0.12,1.039 0.12,1.151 0.39,1.151c0.24,0 0.24,-0.26 0.24,-0.631l0,-4.23c0,-0.557 0,-0.742 -0.24,-0.742c-0.24,0 -0.27,0.074 -0.42,0.927c-0.24,1.151 -1.589,1.151 -3.389,1.114c0,-1.076 -0.06,-4.935 0.3,-5.826c0.27,-0.705 0.75,-0.705 2.699,-0.705c1.38,0 2.819,1.522 3.419,3.043c0.09,0.222 0.15,0.297 0.33,0.297c0.06,0 0.24,-0.037 0.24,-0.26l-0.51,-3.859l-10.346,0c-0.3,0 -0.6,0 -0.6,0.371c0,0.223 0.09,0.334 0.39,0.371c0.689,0.037 1.259,0.074 1.649,1.188c0.3,1.001 0.3,3.153 0.3,5.491c0,1.558 0,5.269 -0.36,6.456c-0.27,0.891 -0.99,1.002 -1.349,1.076c-0.72,0.111 -0.81,0.111 -0.81,0.371c0,0.334 0.27,0.334 0.66,0.334l2.189,0c0.78,0 0.9,0 1.709,0.037c0.45,0.037 2.309,0.074 2.849,0.111l4.259,0Z" style="fill:#fff;fill-rule:nonzero;stroke-width:0.49px;stroke:#fff;stroke-opacity:0.54902;"/><path d="M75.365,58.137c-0.779,0 -0.869,0 -0.869,0.297c0,0.26 0.06,0.297 0.809,0.483c0.63,0.185 0.81,0.482 0.81,3.71c0,1.41 -0.03,7.681 -0.12,8.682c-0.12,1.447 -0.39,1.633 -1.02,1.707c-0.599,0.037 -0.659,0.074 -0.659,0.334c0,0.26 0.15,0.334 0.659,0.334l3.929,0c0.6,0 0.81,0 0.81,-0.334c0,-0.26 -0.15,-0.334 -0.42,-0.334c-0.63,0 -0.93,-0.371 -1.02,-0.89c-0.06,-0.371 -0.06,-5.343 -0.06,-6.048c0,-0.779 0,-5.826 0.12,-6.271c0.09,-0.408 0.3,-0.928 1.02,-1.002c0.27,0 0.45,-0.074 0.45,-0.371c0,-0.297 -0.15,-0.297 -0.72,-0.297l-3.719,0Z" style="fill:#fff;fill-rule:nonzero;stroke-width:0.49px;stroke:#fff;stroke-opacity:0.54902;"/><path d="M95.278,73.684c0.48,0 0.72,0 0.72,-0.334c0,-0.222 -0.27,-0.26 -0.72,-0.334c-1.649,-0.222 -1.889,-1.261 -2.009,-2.486c-0.39,-3.525 -0.48,-4.304 -3.299,-5.343c2.069,-1.113 3.359,-1.781 3.359,-3.933c0,-3.302 -3.389,-3.302 -4.109,-3.302c-0.27,0 -1.049,0.037 -1.829,0.074c-0.78,0.037 -1.56,0.074 -1.859,0.074l-2.639,0c-0.93,0 -1.02,0 -1.02,0.334c0,0.112 0.03,0.223 0.12,0.26c0.12,0.074 0.69,0.111 0.81,0.148c1.199,0.223 1.349,0.817 1.349,5.38c0,0.965 -0.06,5.752 -0.18,6.865c-0.18,1.744 -0.6,1.781 -1.769,1.966c-0.3,0.037 -0.33,0.149 -0.33,0.297c0,0.334 0.24,0.334 0.57,0.334l5.248,0c0.42,0 0.69,0 0.69,-0.297c0,-0.259 -0.15,-0.334 -0.42,-0.334c-1.71,0 -1.71,-1.892 -1.71,-2.523c0,-0.668 0.12,-3.933 0.12,-4.712c0.33,0 0.84,-0.074 1.17,-0.074c3.119,0 3.209,3.042 3.269,4.526c0.06,2.375 0.45,2.82 0.899,3.414l3.569,0ZM86.521,59.065c0.45,-0.148 0.9,-0.334 1.62,-0.334c1.949,0 2.909,1.484 2.909,3.043c0,2.894 -2.669,3.191 -3.569,3.191c-0.36,0 -0.93,-0.075 -1.11,-0.112l0.15,-5.788Z" style="fill:#fff;fill-rule:nonzero;stroke-width:0.49px;stroke:#fff;stroke-opacity:0.54902;"/><path d="M100.706,73.684c0.27,0 0.63,0 0.63,-0.371c0,-0.297 -0.09,-0.297 -1.02,-0.334c-0.6,-0.037 -0.869,-0.482 -0.869,-0.89c0,-0.297 0.06,-0.52 0.299,-1.262c0.15,-0.445 0.9,-2.634 1.05,-3.117c0.63,0 3.749,-0.074 4.468,0c0.12,0.408 0.84,2.523 0.99,2.969c0.21,0.705 0.3,1.001 0.3,1.335c0,0.78 -0.63,0.928 -1.08,0.965c-0.719,0.037 -0.809,0.037 -0.809,0.334c0,0.371 0.36,0.371 0.599,0.371l5.099,0c0.389,0 0.689,-0.037 0.689,-0.334c0,-0.334 -0.15,-0.334 -0.629,-0.334c-0.75,-0.037 -1.29,-0.668 -1.8,-2.041c-1.409,-3.895 -2.699,-7.903 -3.928,-11.91c-0.33,-1.002 -0.39,-1.224 -0.87,-1.224c-0.18,0 -0.33,0.037 -0.42,0.148c-0.33,0.445 -3.719,10.872 -4.408,12.838c-0.78,2.152 -1.38,2.152 -2.399,2.152c-0.09,0 -0.27,0.074 -0.27,0.334c0,0.334 0.33,0.371 0.659,0.371l3.719,0ZM103.135,60.735c0.3,0.927 1.59,5.194 1.89,6.048c-0.63,0 -3.449,0.074 -4.019,0.074c0.24,-0.668 1.2,-3.673 1.409,-4.267c0.3,-0.816 0.51,-1.336 0.72,-1.855Z" style="fill:#fff;fill-rule:nonzero;stroke-width:0.49px;stroke:#fff;stroke-opacity:0.54902;"/><path d="M32.006,89.672c0.659,1.599 1.166,2.577 1.52,2.936c0.355,0.358 0.709,0.538 1.064,0.538c0.478,0 0.937,-0.249 1.379,-0.745c0.051,-0.064 0.094,-0.096 0.13,-0.096c0.145,0 0.217,0.092 0.217,0.275c0,0.175 -0.329,0.524 -0.988,1.048c-0.658,0.524 -1.313,0.786 -1.965,0.786c-0.39,0 -0.754,-0.149 -1.091,-0.448c-0.336,-0.299 -0.819,-1.147 -1.449,-2.544c-1.621,1.995 -3.177,2.992 -4.668,2.992c-1.021,0 -1.882,-0.395 -2.584,-1.186c-0.702,-0.79 -1.053,-1.783 -1.053,-2.977c0,-1.122 0.285,-2.144 0.857,-3.068c0.572,-0.924 1.538,-1.937 2.899,-3.04c-1.31,-1.645 -1.965,-3.088 -1.965,-4.329c0,-1.047 0.293,-1.898 0.879,-2.55c0.587,-0.653 1.26,-0.979 2.02,-0.979c0.673,0 1.273,0.274 1.802,0.82c0.528,0.547 0.792,1.262 0.792,2.144c0,1.186 -0.644,2.477 -1.932,3.874c1.701,1.774 2.996,3.755 3.887,5.942c0.933,-1.838 1.4,-3.268 1.4,-4.288c0,-0.459 -0.114,-0.829 -0.342,-1.11c-0.228,-0.28 -0.545,-0.42 -0.95,-0.42c-0.355,0 -0.532,-0.083 -0.532,-0.248c0,-0.193 0.076,-0.289 0.228,-0.289l1.911,0.096l2.562,-0.028c0.203,0 0.304,0.088 0.304,0.262c0,0.166 -0.13,0.249 -0.391,0.249c-0.521,0.018 -0.966,0.261 -1.335,0.73c-0.369,0.469 -0.807,1.397 -1.314,2.785c-0.485,1.333 -0.915,2.289 -1.292,2.868ZM27.501,82.668c0.926,-1.039 1.39,-2.109 1.39,-3.212c0,-0.671 -0.181,-1.257 -0.543,-1.758c-0.362,-0.501 -0.786,-0.751 -1.271,-0.751c-0.456,0 -0.821,0.211 -1.096,0.634c-0.275,0.423 -0.413,0.914 -0.413,1.475c0,1.085 0.644,2.289 1.933,3.612ZM26.632,84.598c-0.738,0.616 -1.319,1.268 -1.742,1.958c-0.424,0.689 -0.635,1.53 -0.635,2.523c0,1.139 0.289,2.097 0.868,2.874c0.579,0.777 1.252,1.165 2.019,1.165c1.115,0 2.262,-0.754 3.442,-2.261c-0.593,-1.369 -1.116,-2.419 -1.569,-3.15c-0.452,-0.731 -1.246,-1.767 -2.383,-3.109Z" style="fill:#fff;fill-rule:nonzero;stroke-width:0.49px;stroke:#fff;stroke-opacity:0.54902;"/><path d="M44.361,91.096c-0.294,0.541 -0.646,0.947 -1.054,1.218c-0.408,0.271 -0.87,0.406 -1.387,0.406c-0.606,0 -1.082,-0.206 -1.428,-0.618c-0.345,-0.411 -0.518,-0.953 -0.518,-1.624c0,-0.503 0.104,-0.972 0.311,-1.407c0.207,-0.435 0.445,-0.747 0.712,-0.938c0.267,-0.19 0.737,-0.43 1.409,-0.72c0.961,-0.404 1.538,-0.74 1.73,-1.007c0.192,-0.267 0.288,-0.614 0.288,-1.041c0,-0.679 -0.126,-1.207 -0.378,-1.584c-0.252,-0.377 -0.61,-0.566 -1.072,-0.566c-0.378,0 -0.664,0.107 -0.856,0.32c-0.192,0.221 -0.339,0.652 -0.441,1.293c-0.108,0.701 -0.346,1.052 -0.712,1.052c-0.132,0 -0.278,-0.084 -0.437,-0.252c-0.159,-0.167 -0.238,-0.415 -0.238,-0.743c0,-0.572 0.249,-1.07 0.747,-1.493c0.499,-0.423 1.183,-0.635 2.054,-0.635c0.691,0 1.242,0.124 1.653,0.372c0.411,0.248 0.67,0.532 0.775,0.852c0.105,0.321 0.157,0.938 0.157,1.853l-0.054,3.02c0,1.167 0.056,1.996 0.167,2.488c0.111,0.492 0.317,0.738 0.617,0.738c0.06,0 0.144,-0.012 0.252,-0.035l0.153,-0.023c0.138,0 0.207,0.065 0.207,0.195c0,0.297 -0.591,0.446 -1.774,0.446c-0.343,0 -0.572,-0.101 -0.689,-0.303c-0.117,-0.202 -0.182,-0.624 -0.194,-1.264ZM44.361,86.635c-0.18,0.297 -0.588,0.659 -1.225,1.086c-0.631,0.412 -1.084,0.805 -1.36,1.179c-0.276,0.381 -0.414,0.838 -0.414,1.372c0,0.481 0.112,0.889 0.337,1.224c0.226,0.336 0.506,0.504 0.842,0.504c0.349,0 0.676,-0.136 0.982,-0.406c0.307,-0.271 0.533,-0.616 0.68,-1.036c0.148,-0.419 0.221,-1.041 0.221,-1.864c0,-0.618 -0.021,-1.304 -0.063,-2.059Z" style="fill:#fff;fill-rule:nonzero;stroke-width:0.48px;stroke:#fff;stroke-opacity:0.54902;"/><path d="M53.603,89.529c0,0.884 -0.258,1.645 -0.775,2.282c-0.516,0.636 -1.129,0.955 -1.837,0.955c-0.42,0 -0.922,-0.172 -1.504,-0.515c-0.319,-0.183 -0.508,-0.274 -0.568,-0.274c-0.102,0 -0.192,0.08 -0.27,0.24c-0.096,0.213 -0.186,0.32 -0.27,0.32c-0.073,0 -0.118,-0.109 -0.135,-0.326c-0.019,-0.217 -0.031,-0.711 -0.037,-1.481c-0.006,-0.664 -0.015,-1.091 -0.027,-1.281c0,-0.282 0.057,-0.423 0.172,-0.423c0.066,0 0.117,0.072 0.153,0.217c0.234,0.869 0.563,1.607 0.986,2.213c0.423,0.606 0.92,0.909 1.491,0.909c0.402,0 0.759,-0.158 1.072,-0.474c0.312,-0.317 0.468,-0.746 0.468,-1.287c0,-0.839 -0.573,-1.582 -1.72,-2.231c-0.787,-0.449 -1.313,-0.777 -1.577,-0.983c-0.264,-0.206 -0.471,-0.484 -0.621,-0.835c-0.15,-0.351 -0.225,-0.732 -0.225,-1.144c0,-0.785 0.234,-1.443 0.702,-1.973c0.469,-0.53 1.036,-0.795 1.703,-0.795c0.492,0 1.032,0.194 1.621,0.583c0.096,0.061 0.18,0.092 0.252,0.092c0.06,0 0.126,-0.061 0.198,-0.183c0.072,-0.115 0.13,-0.172 0.171,-0.172c0.055,0 0.097,0.029 0.127,0.086c0.03,0.057 0.063,0.393 0.099,1.007c0.036,0.613 0.054,1.119 0.054,1.515c0,0.244 -0.051,0.366 -0.153,0.366c-0.09,0 -0.163,-0.11 -0.217,-0.332c-0.048,-0.205 -0.192,-0.598 -0.432,-1.178c-0.24,-0.579 -0.503,-0.949 -0.788,-1.109c-0.285,-0.16 -0.566,-0.24 -0.842,-0.24c-0.433,0 -0.787,0.133 -1.063,0.4c-0.277,0.267 -0.415,0.614 -0.415,1.041c0,0.267 0.057,0.507 0.172,0.721c0.114,0.213 0.22,0.373 0.319,0.48c0.099,0.107 0.672,0.457 1.716,1.052c0.649,0.374 1.075,0.662 1.279,0.864c0.205,0.202 0.376,0.474 0.514,0.818c0.138,0.343 0.207,0.701 0.207,1.075Z" style="fill:#fff;fill-rule:nonzero;stroke-width:0.48px;stroke:#fff;stroke-opacity:0.54902;"/><path d="M55.116,87.779c0,-1.342 0.382,-2.524 1.144,-3.546c0.763,-1.022 1.7,-1.533 2.811,-1.533c1.045,0 1.944,0.458 2.698,1.373c0.753,0.915 1.13,2.059 1.13,3.431c0,1.388 -0.396,2.606 -1.189,3.655c-0.793,1.048 -1.717,1.573 -2.774,1.573c-1.045,0 -1.943,-0.483 -2.694,-1.447c-0.75,-0.965 -1.126,-2.134 -1.126,-3.506ZM56.576,87.71c0,1.312 0.238,2.402 0.716,3.271c0.477,0.87 1.067,1.305 1.77,1.305c0.642,0 1.208,-0.409 1.698,-1.224c0.489,-0.816 0.734,-1.899 0.734,-3.249c0,-1.205 -0.236,-2.278 -0.707,-3.22c-0.472,-0.942 -1.083,-1.413 -1.833,-1.413c-0.697,0 -1.267,0.429 -1.712,1.287c-0.444,0.858 -0.666,1.939 -0.666,3.243Z" style="fill:#fff;fill-rule:nonzero;stroke-width:0.48px;stroke:#fff;stroke-opacity:0.54902;"/><path d="M64.124,87.95c0,-1.395 0.353,-2.615 1.058,-3.66c0.706,-1.045 1.566,-1.567 2.581,-1.567c0.655,0 1.282,0.204 1.883,0.612c0.6,0.408 0.901,0.917 0.901,1.527c0,0.236 -0.057,0.444 -0.172,0.623c-0.114,0.179 -0.246,0.269 -0.396,0.269c-0.336,0 -0.595,-0.343 -0.775,-1.029c-0.276,-1.053 -0.759,-1.579 -1.45,-1.579c-0.685,0 -1.205,0.376 -1.563,1.127c-0.357,0.751 -0.536,1.737 -0.536,2.957c0,1.433 0.25,2.604 0.748,3.511c0.498,0.908 1.099,1.361 1.802,1.361c0.462,0 0.909,-0.228 1.342,-0.686c0.426,-0.45 0.675,-0.999 0.747,-1.647c0.03,-0.221 0.096,-0.332 0.198,-0.332c0.109,0 0.163,0.069 0.163,0.206c0,0.747 -0.272,1.449 -0.816,2.105c-0.543,0.656 -1.271,0.984 -2.184,0.984c-0.997,0 -1.834,-0.481 -2.513,-1.442c-0.679,-0.961 -1.018,-2.074 -1.018,-3.34Z" style="fill:#fff;fill-rule:nonzero;stroke-width:0.48px;stroke:#fff;stroke-opacity:0.54902;"/><path d="M73.366,77.141c0.228,0 0.432,0.107 0.613,0.32c0.18,0.214 0.27,0.446 0.27,0.698c0,0.297 -0.074,0.553 -0.221,0.766c-0.147,0.214 -0.35,0.321 -0.608,0.321c-0.228,0 -0.432,-0.094 -0.613,-0.281c-0.18,-0.186 -0.27,-0.44 -0.27,-0.76c0,-0.313 0.077,-0.568 0.23,-0.767c0.153,-0.198 0.353,-0.297 0.599,-0.297ZM74.366,82.734l-0.009,2.574l0.018,2.402l0,1.807l-0.009,1.373c0,0.549 0.07,0.898 0.212,1.046c0.141,0.149 0.352,0.231 0.635,0.246c0.33,0.023 0.495,0.111 0.495,0.264c0,0.122 -0.063,0.182 -0.189,0.182c-0.048,0 -0.102,-0.003 -0.162,-0.011c-0.559,-0.091 -1.078,-0.137 -1.559,-0.137c-0.768,0 -1.3,0.03 -1.594,0.091c-0.06,0.016 -0.12,0.023 -0.18,0.023c-0.144,0 -0.216,-0.068 -0.216,-0.206c0,-0.137 0.168,-0.232 0.504,-0.286c0.336,-0.053 0.551,-0.146 0.644,-0.28c0.093,-0.133 0.14,-0.513 0.14,-1.138l0.054,-4.735c0,-1.266 -0.075,-2.015 -0.225,-2.248c-0.151,-0.233 -0.442,-0.357 -0.874,-0.372c-0.144,0 -0.216,-0.061 -0.216,-0.183c0,-0.068 0.024,-0.122 0.072,-0.16c0.048,-0.038 0.405,-0.088 1.072,-0.149c0.666,-0.061 1.129,-0.095 1.387,-0.103Z" style="fill:#fff;fill-rule:nonzero;stroke-width:0.48px;stroke:#fff;stroke-opacity:0.54902;"/><path d="M81.257,91.096c-0.294,0.541 -0.646,0.947 -1.054,1.218c-0.409,0.271 -0.871,0.406 -1.387,0.406c-0.607,0 -1.083,-0.206 -1.428,-0.618c-0.345,-0.411 -0.518,-0.953 -0.518,-1.624c0,-0.503 0.104,-0.972 0.311,-1.407c0.207,-0.435 0.444,-0.747 0.711,-0.938c0.268,-0.19 0.737,-0.43 1.41,-0.72c0.961,-0.404 1.537,-0.74 1.73,-1.007c0.192,-0.267 0.288,-0.614 0.288,-1.041c0,-0.679 -0.126,-1.207 -0.379,-1.584c-0.252,-0.377 -0.609,-0.566 -1.072,-0.566c-0.378,0 -0.663,0.107 -0.855,0.32c-0.192,0.221 -0.34,0.652 -0.442,1.293c-0.108,0.701 -0.345,1.052 -0.711,1.052c-0.132,0 -0.278,-0.084 -0.437,-0.252c-0.159,-0.167 -0.239,-0.415 -0.239,-0.743c0,-0.572 0.249,-1.07 0.748,-1.493c0.498,-0.423 1.183,-0.635 2.054,-0.635c0.69,0 1.241,0.124 1.653,0.372c0.411,0.248 0.669,0.532 0.774,0.852c0.105,0.321 0.158,0.938 0.158,1.853l-0.054,3.02c0,1.167 0.055,1.996 0.166,2.488c0.111,0.492 0.317,0.738 0.618,0.738c0.059,0 0.144,-0.012 0.252,-0.035l0.153,-0.023c0.138,0 0.207,0.065 0.207,0.195c0,0.297 -0.591,0.446 -1.775,0.446c-0.342,0 -0.572,-0.101 -0.689,-0.303c-0.117,-0.202 -0.181,-0.624 -0.193,-1.264ZM81.257,86.635c-0.18,0.297 -0.589,0.659 -1.225,1.086c-0.631,0.412 -1.084,0.805 -1.361,1.179c-0.276,0.381 -0.414,0.838 -0.414,1.372c0,0.481 0.113,0.889 0.338,1.224c0.225,0.336 0.506,0.504 0.842,0.504c0.348,0 0.676,-0.136 0.982,-0.406c0.306,-0.271 0.533,-0.616 0.68,-1.036c0.147,-0.419 0.221,-1.041 0.221,-1.864c0,-0.618 -0.021,-1.304 -0.063,-2.059Z" style="fill:#fff;fill-rule:nonzero;stroke-width:0.48px;stroke:#fff;stroke-opacity:0.54902;"/><path d="M91.823,76.901c0.006,1.632 0.009,3.835 0.009,6.611l-0.072,7.264c0,0.8 0.291,1.265 0.874,1.395c0.192,0.046 0.288,0.126 0.288,0.24c0,0.092 -0.035,0.149 -0.104,0.172c-0.069,0.023 -0.467,0.034 -1.193,0.034c-0.373,-0.007 -0.742,-0.015 -1.108,-0.023c-0.018,-0.465 -0.027,-0.8 -0.027,-1.006c0,-0.26 0.009,-0.629 0.027,-1.11c-0.325,0.763 -0.694,1.335 -1.108,1.716c-0.415,0.381 -0.874,0.572 -1.378,0.572c-0.715,0 -1.44,-0.427 -2.176,-1.281c-0.735,-0.854 -1.103,-2.006 -1.103,-3.455c0,-1.41 0.344,-2.634 1.031,-3.671c0.688,-1.037 1.533,-1.556 2.536,-1.556c0.504,0 0.939,0.135 1.306,0.406c0.366,0.271 0.663,0.681 0.892,1.23c0.036,-0.9 0.054,-1.747 0.054,-2.54c0,-2.432 -0.048,-3.782 -0.144,-4.049c-0.097,-0.267 -0.322,-0.427 -0.676,-0.48c-0.222,-0.038 -0.333,-0.111 -0.333,-0.218c0,-0.129 0.141,-0.194 0.423,-0.194l1.982,-0.057ZM90.553,87.15c0,-1.297 -0.173,-2.267 -0.518,-2.911c-0.346,-0.645 -0.867,-0.967 -1.563,-0.967c-0.727,0 -1.273,0.375 -1.64,1.127c-0.366,0.751 -0.549,1.878 -0.549,3.38c0,1.517 0.218,2.604 0.653,3.26c0.435,0.656 0.908,0.983 1.419,0.983c0.51,0 1.004,-0.345 1.482,-1.035c0.477,-0.69 0.716,-1.969 0.716,-3.837Z" style="fill:#fff;fill-rule:nonzero;stroke-width:0.48px;stroke:#fff;stroke-opacity:0.54902;"/><path d="M94.12,87.779c0,-1.342 0.381,-2.524 1.144,-3.546c0.762,-1.022 1.699,-1.533 2.81,-1.533c1.045,0 1.944,0.458 2.698,1.373c0.754,0.915 1.13,2.059 1.13,3.431c0,1.388 -0.396,2.606 -1.189,3.655c-0.792,1.048 -1.717,1.573 -2.774,1.573c-1.045,0 -1.943,-0.483 -2.693,-1.447c-0.751,-0.965 -1.126,-2.134 -1.126,-3.506ZM95.579,87.71c0,1.312 0.239,2.402 0.716,3.271c0.477,0.87 1.067,1.305 1.77,1.305c0.643,0 1.209,-0.409 1.698,-1.224c0.489,-0.816 0.734,-1.899 0.734,-3.249c0,-1.205 -0.235,-2.278 -0.707,-3.22c-0.471,-0.942 -1.082,-1.413 -1.833,-1.413c-0.697,0 -1.267,0.429 -1.711,1.287c-0.445,0.858 -0.667,1.939 -0.667,3.243Z" style="fill:#fff;fill-rule:nonzero;stroke-width:0.48px;stroke:#fff;stroke-opacity:0.54902;"/><path d="M108.946,89.529c0,0.884 -0.258,1.645 -0.774,2.282c-0.517,0.636 -1.129,0.955 -1.838,0.955c-0.42,0 -0.922,-0.172 -1.504,-0.515c-0.318,-0.183 -0.508,-0.274 -0.568,-0.274c-0.102,0 -0.192,0.08 -0.27,0.24c-0.096,0.213 -0.186,0.32 -0.27,0.32c-0.072,0 -0.117,-0.109 -0.135,-0.326c-0.018,-0.217 -0.03,-0.711 -0.036,-1.481c-0.006,-0.664 -0.015,-1.091 -0.027,-1.281c0,-0.282 0.057,-0.423 0.171,-0.423c0.066,0 0.117,0.072 0.153,0.217c0.234,0.869 0.563,1.607 0.986,2.213c0.424,0.606 0.921,0.909 1.491,0.909c0.402,0 0.76,-0.158 1.072,-0.474c0.312,-0.317 0.468,-0.746 0.468,-1.287c0,-0.839 -0.573,-1.582 -1.72,-2.231c-0.787,-0.449 -1.312,-0.777 -1.576,-0.983c-0.264,-0.206 -0.472,-0.484 -0.622,-0.835c-0.15,-0.351 -0.225,-0.732 -0.225,-1.144c0,-0.785 0.234,-1.443 0.703,-1.973c0.468,-0.53 1.035,-0.795 1.702,-0.795c0.492,0 1.033,0.194 1.621,0.583c0.096,0.061 0.181,0.092 0.253,0.092c0.06,0 0.126,-0.061 0.198,-0.183c0.072,-0.115 0.129,-0.172 0.171,-0.172c0.054,0 0.096,0.029 0.126,0.086c0.03,0.057 0.063,0.393 0.099,1.007c0.036,0.613 0.054,1.119 0.054,1.515c0,0.244 -0.051,0.366 -0.153,0.366c-0.09,0 -0.162,-0.11 -0.216,-0.332c-0.048,-0.205 -0.192,-0.598 -0.433,-1.178c-0.24,-0.579 -0.502,-0.949 -0.788,-1.109c-0.285,-0.16 -0.566,-0.24 -0.842,-0.24c-0.432,0 -0.787,0.133 -1.063,0.4c-0.276,0.267 -0.414,0.614 -0.414,1.041c0,0.267 0.057,0.507 0.171,0.721c0.114,0.213 0.221,0.373 0.32,0.48c0.099,0.107 0.671,0.457 1.716,1.052c0.648,0.374 1.075,0.662 1.279,0.864c0.204,0.202 0.375,0.474 0.513,0.818c0.138,0.343 0.207,0.701 0.207,1.075Z" style="fill:#fff;fill-rule:nonzero;stroke-width:0.48px;stroke:#fff;stroke-opacity:0.54902;"/></g></svg>