<?xml version="1.0" encoding="utf-8"?>
<!-- Generator: Adobe Illustrator 18.0.0, SVG Export Plug-In . SVG Version: 6.00 Build 0)  -->
<!DOCTYPE svg PUBLIC "-//W3C//DTD SVG 1.1//EN" "http://www.w3.org/Graphics/SVG/1.1/DTD/svg11.dtd">
<svg version="1.1" id="Layer_1" xmlns="http://www.w3.org/2000/svg" xmlns:xlink="http://www.w3.org/1999/xlink" x="0px" y="0px"
	 viewBox="15.5 16.5 35 35" enable-background="new 15.5 16.5 35 35" xml:space="preserve">
<path fill="#C69C70" d="M42.8,42.2v-6.8c0-3.7-2-5.4-4.6-5.4c-2.1,0-3,1.2-3.6,2v-1.7h-4c0.1,1.1,0,11.9,0,11.9h4v-6.7
	c0-0.4,0-0.7,0.1-1c0.3-0.7,0.9-1.4,2-1.4c1.4,0,2,1.1,2,2.7v6.4H42.8z M26.6,28.7c1.4,0,2.2-0.9,2.2-2.1c0-1.2-0.9-2.1-2.2-2.1
	c-1.4,0-2.2,0.9-2.2,2.1C24.3,27.8,25.2,28.7,26.6,28.7L26.6,28.7z M28.5,42.2V30.3h-4v11.9H28.5z M15.5,16.5h35v35h-35V16.5z"/>
</svg>
