<?xml version="1.0" standalone="no"?>
<!DOCTYPE svg PUBLIC "-//W3C//DTD SVG 1.1//EN" "http://www.w3.org/Graphics/SVG/1.1/DTD/svg11.dtd">
<svg width="100%" height="100%" viewBox="0 0 67 67" version="1.1" xmlns="http://www.w3.org/2000/svg" xmlns:xlink="http://www.w3.org/1999/xlink" xml:space="preserve" style="fill-rule:evenodd;clip-rule:evenodd;stroke-linejoin:round;stroke-miterlimit:1.41421;">
    <g transform="matrix(1.675,0,0,0.98966,-12.5625,0)">
        <rect x="7.5" y="0" width="40" height="62.2" style="fill:rgb(207,10,44);"/>
    </g>
    <g transform="matrix(1.675,0,0,0.98966,-12.5625,0)">
        <path d="M19.6,61.2L27.9,67.7L35.4,61.2L19.6,61.2Z" style="fill:rgb(207,10,44);fill-rule:nonzero;"/>
    </g>
    <g transform="matrix(0.129516,0,0,0.165238,-28.0925,-19.1294)">
        <path d="M393.561,189.807C394.618,193.891 395.658,199.616 396.679,206.981C396.496,207.273 396.296,207.419 396.077,207.419C395.822,207.419 395.548,207.273 395.256,206.981C392.74,202.934 390.334,199.853 388.036,197.738C385.739,195.623 383.433,194.119 381.117,193.225C378.802,192.332 374.818,191.885 369.166,191.885C363.842,191.885 359.631,192.195 356.531,192.815C356.24,193.18 356.094,193.854 356.094,194.839C356.094,195.094 356.057,195.55 355.984,196.206C355.62,199.123 355.437,207.036 355.437,219.944C355.437,220.491 355.474,221.257 355.547,222.242C358.318,222.351 360.214,222.406 361.235,222.406C365.83,222.406 369.157,221.722 371.217,220.355C373.278,218.987 375.073,216.043 376.605,211.521C376.86,210.755 377.225,210.373 377.699,210.373C378.392,210.373 378.738,210.901 378.738,211.959L378.519,214.147C378.228,217.027 378.082,219.999 378.082,223.062C378.082,228.021 378.173,232.488 378.355,236.463C378.355,237.703 378.009,238.322 377.316,238.322C376.805,238.322 376.459,237.885 376.277,237.01C375.511,232.707 373.907,229.607 371.463,227.711C369.02,225.815 363.715,224.867 355.547,224.867C355.437,227.529 355.383,231.832 355.383,237.776C355.383,245.469 355.656,250.356 356.203,252.434C356.75,254.513 358.063,256.163 360.141,257.384C362.22,258.606 365.739,259.217 370.698,259.217C384.882,259.217 394.035,254.33 398.155,244.558C398.666,243.355 399.195,242.753 399.742,242.753C400.325,242.753 400.617,243.154 400.617,243.956C400.617,244.394 400.526,244.868 400.343,245.378C400.124,246.071 399.596,248.66 398.757,253.145C398.575,254.093 397.882,256.938 396.679,261.678L373.761,261.623C370.479,261.623 365.657,261.486 359.293,261.213C352.93,260.939 347.297,260.794 342.392,260.775C337.488,260.757 334.926,260.657 334.707,260.475C334.489,260.292 334.379,260.092 334.379,259.873C334.379,259.144 334.981,258.779 336.184,258.779C340.232,258.779 342.894,257.703 344.17,255.552C345.446,253.4 346.084,248.168 346.084,239.854L346.03,228.641L346.194,218.139C346.194,216.025 346.075,212.023 345.838,206.134C345.601,200.245 345.382,196.881 345.182,196.042C344.981,195.203 344.416,194.374 343.486,193.553C342.556,192.733 340.505,191.903 337.333,191.065C336.385,190.809 335.911,190.408 335.911,189.861C335.911,189.205 336.549,188.877 337.825,188.877L348.983,189.479C352.921,189.661 362.603,189.752 378.027,189.752C388.164,189.752 393.342,189.77 393.561,189.807Z" style="fill:white;fill-rule:nonzero;stroke-width:3.37px;stroke:white;stroke-opacity:0.54902;"/>
        <path d="M443.553,246.253C443.553,250.483 441.985,254.121 438.85,257.165C435.714,260.21 431.994,261.733 427.691,261.733C425.139,261.733 422.094,260.912 418.557,259.271C416.625,258.396 415.476,257.959 415.111,257.959C414.491,257.959 413.944,258.341 413.47,259.107C412.887,260.128 412.34,260.639 411.829,260.639C411.392,260.639 411.118,260.119 411.009,259.08C410.9,258.041 410.827,255.679 410.79,251.997C410.754,248.824 410.699,246.782 410.626,245.871C410.626,244.521 410.973,243.847 411.665,243.847C412.066,243.847 412.376,244.193 412.595,244.886C414.017,249.043 416.014,252.571 418.584,255.47C421.155,258.369 424.173,259.818 427.637,259.818C430.08,259.818 432.249,259.062 434.146,257.548C436.042,256.035 436.99,253.984 436.99,251.395C436.99,247.384 433.508,243.829 426.543,240.729C421.766,238.578 418.575,237.01 416.971,236.025C415.367,235.041 414.108,233.71 413.197,232.032C412.285,230.355 411.829,228.532 411.829,226.563C411.829,222.807 413.252,219.662 416.096,217.128C418.94,214.593 422.386,213.326 426.433,213.326C429.423,213.326 432.705,214.256 436.279,216.116C436.862,216.407 437.373,216.553 437.81,216.553C438.175,216.553 438.576,216.262 439.014,215.678C439.451,215.131 439.798,214.858 440.053,214.858C440.381,214.858 440.636,214.994 440.819,215.268C441.001,215.541 441.201,217.146 441.42,220.081C441.639,223.017 441.748,225.432 441.748,227.328C441.748,228.495 441.438,229.079 440.819,229.079C440.272,229.079 439.834,228.55 439.506,227.493C439.214,226.508 438.339,224.63 436.88,221.859C435.422,219.088 433.827,217.319 432.095,216.553C430.362,215.788 428.658,215.405 426.98,215.405C424.355,215.405 422.204,216.043 420.526,217.319C418.849,218.595 418.01,220.254 418.01,222.296C418.01,223.573 418.357,224.721 419.049,225.742C419.742,226.763 420.389,227.529 420.991,228.04C421.593,228.55 425.066,230.227 431.411,233.072C435.349,234.858 437.938,236.235 439.178,237.201C440.417,238.167 441.457,239.471 442.295,241.112C443.134,242.753 443.553,244.467 443.553,246.253Z" style="fill:white;fill-rule:nonzero;stroke-width:3.37px;stroke:white;stroke-opacity:0.54902;"/>
        <path d="M469.917,218.796C469.407,226.854 469.151,234.767 469.151,242.534C469.151,248.514 469.862,252.416 471.285,254.239C472.707,256.062 474.749,256.974 477.411,256.974C479.343,256.974 481.476,256.263 483.81,254.841C484.649,254.33 485.159,254.075 485.342,254.075C485.816,254.075 486.053,254.33 486.053,254.841C486.053,255.716 484.758,257.102 482.169,258.998C479.58,260.894 476.408,261.842 472.652,261.842C468.933,261.842 466.143,260.547 464.283,257.959C462.424,255.37 461.494,251.504 461.494,246.363C461.494,241.003 461.822,231.814 462.478,218.796C462.223,218.723 460.491,218.595 457.282,218.413L454,218.194C453.198,218.158 452.797,217.884 452.797,217.374C452.797,216.9 453.253,216.517 454.165,216.225C455.66,215.678 458.176,214.074 461.713,211.412C465.25,208.75 467.31,204.994 467.893,200.144C468.039,198.868 468.44,198.23 469.097,198.23C469.753,198.23 470.081,198.74 470.081,199.761C470.081,200.09 470.063,200.436 470.027,200.801C469.917,202.223 469.862,203.864 469.862,205.723L469.917,214.256L481.896,214.092C483.938,214.092 484.995,214.329 485.068,214.803C485.032,216.48 484.758,217.538 484.248,217.975C482.351,217.975 477.575,218.249 469.917,218.796Z" style="fill:white;fill-rule:nonzero;stroke-width:3.37px;stroke:white;stroke-opacity:0.54902;"/>
        <path d="M504.431,214.803C504.613,217.173 504.777,224.028 504.923,235.369C504.996,242.443 505.178,247.156 505.47,249.508C505.762,251.86 506.682,253.802 508.232,255.333C509.782,256.865 511.559,257.63 513.565,257.63C516.19,257.63 518.825,256.409 521.469,253.966C524.112,251.523 525.744,248.906 526.364,246.117C526.984,243.327 527.294,236.919 527.294,226.891C527.294,222.223 527.002,219.397 526.419,218.413C525.835,217.428 524.413,216.863 522.152,216.717C521.314,216.681 520.894,216.371 520.894,215.788C520.894,215.386 521.022,215.122 521.277,214.994C521.532,214.867 522.353,214.803 523.738,214.803L534.678,214.803C535.006,218.778 535.17,223.226 535.17,228.149L534.732,248.715C534.732,252.945 535.088,255.607 535.799,256.7C536.51,257.794 537.631,258.414 539.163,258.56C540.111,258.706 540.585,259.071 540.585,259.654C540.585,260.31 539.655,260.639 537.795,260.639L529.153,260.639C527.658,260.639 526.911,260.146 526.911,259.162C526.911,258.87 526.929,258.542 526.966,258.177C527.075,257.083 527.13,255.971 527.13,254.841C527.13,253.893 527.075,252.507 526.966,250.684C524.194,254.257 521.314,256.938 518.324,258.724C515.333,260.511 512.216,261.404 508.97,261.404C506.199,261.404 503.875,260.73 501.997,259.381C500.119,258.031 498.879,256.4 498.277,254.485C497.676,252.571 497.265,247.803 497.047,240.182C496.828,232.561 496.718,226.581 496.718,222.242C496.718,219.872 496.591,218.395 496.336,217.811C496.08,217.228 495.278,216.9 493.929,216.827C492.47,216.717 491.741,216.353 491.741,215.733C491.741,215.113 492.616,214.803 494.366,214.803L504.431,214.803Z" style="fill:white;fill-rule:nonzero;stroke-width:3.37px;stroke:white;stroke-opacity:0.54902;"/>
        <path d="M591.617,185.869C591.653,193.672 591.672,204.21 591.672,217.483L591.234,252.215C591.234,256.044 593.002,258.268 596.54,258.888C597.706,259.107 598.29,259.49 598.29,260.037C598.29,260.475 598.08,260.748 597.661,260.857C597.241,260.967 594.826,261.022 590.414,261.022C588.153,260.985 585.91,260.949 583.686,260.912C583.576,258.688 583.522,257.083 583.522,256.099C583.522,254.859 583.576,253.091 583.686,250.793C581.717,254.44 579.474,257.175 576.958,258.998C574.442,260.821 571.653,261.733 568.59,261.733C564.25,261.733 559.847,259.691 555.38,255.607C550.914,251.523 548.68,246.016 548.68,239.088C548.68,232.342 550.768,226.49 554.943,221.531C559.118,216.571 564.25,214.092 570.34,214.092C573.403,214.092 576.047,214.739 578.271,216.034C580.495,217.328 582.3,219.288 583.686,221.914C583.905,217.611 584.014,213.563 584.014,209.771C584.014,198.139 583.722,191.685 583.139,190.408C582.555,189.132 581.188,188.366 579.037,188.111C577.687,187.929 577.013,187.582 577.013,187.072C577.013,186.452 577.87,186.142 579.584,186.142L591.617,185.869ZM583.905,234.877C583.905,228.678 582.856,224.038 580.76,220.956C578.663,217.875 575.5,216.334 571.27,216.334C566.858,216.334 563.539,218.13 561.315,221.722C559.091,225.314 557.978,230.701 557.978,237.885C557.978,245.141 559.3,250.337 561.944,253.473C564.588,256.609 567.459,258.177 570.559,258.177C573.658,258.177 576.657,256.527 579.556,253.227C582.455,249.927 583.905,243.81 583.905,234.877Z" style="fill:white;fill-rule:nonzero;stroke-width:3.37px;stroke:white;stroke-opacity:0.54902;"/>
        <path d="M614.863,187.017C616.248,187.017 617.488,187.528 618.582,188.549C619.676,189.57 620.223,190.682 620.223,191.885C620.223,193.307 619.776,194.529 618.883,195.55C617.99,196.571 616.759,197.081 615.191,197.081C613.805,197.081 612.566,196.635 611.472,195.741C610.378,194.848 609.831,193.635 609.831,192.104C609.831,190.609 610.296,189.387 611.226,188.439C612.155,187.491 613.368,187.017 614.863,187.017ZM620.934,213.764L620.879,226.07L620.989,237.557L620.989,246.199L620.934,252.762C620.934,255.388 621.363,257.056 622.22,257.767C623.076,258.478 624.362,258.87 626.076,258.943C628.081,259.052 629.084,259.472 629.084,260.201C629.084,260.784 628.701,261.076 627.935,261.076C627.644,261.076 627.315,261.058 626.951,261.022C623.56,260.584 620.405,260.365 617.488,260.365C612.821,260.365 609.594,260.511 607.807,260.803C607.442,260.876 607.078,260.912 606.713,260.912C605.838,260.912 605.4,260.584 605.4,259.928C605.4,259.271 606.421,258.815 608.463,258.56C610.505,258.305 611.809,257.858 612.374,257.22C612.939,256.582 613.222,254.768 613.222,251.778L613.55,229.133C613.55,223.08 613.094,219.498 612.183,218.386C611.271,217.273 609.503,216.681 606.877,216.608C606.002,216.608 605.564,216.316 605.564,215.733C605.564,215.405 605.71,215.149 606.002,214.967C606.294,214.785 608.463,214.548 612.511,214.256C616.558,213.964 619.366,213.8 620.934,213.764Z" style="fill:white;fill-rule:nonzero;stroke-width:3.37px;stroke:white;stroke-opacity:0.54902;"/>
        <path d="M634.718,237.885C634.718,231.467 637.033,225.815 641.664,220.929C646.295,216.043 651.984,213.6 658.729,213.6C665.074,213.6 670.535,215.788 675.111,220.163C679.687,224.539 681.975,230.009 681.975,236.572C681.975,243.209 679.569,249.034 674.755,254.048C669.942,259.062 664.327,261.568 657.909,261.568C651.564,261.568 646.113,259.262 641.555,254.649C636.997,250.037 634.718,244.448 634.718,237.885ZM643.578,237.557C643.578,243.829 645.028,249.043 647.927,253.2C650.826,257.357 654.408,259.435 658.675,259.435C662.576,259.435 666.013,257.484 668.985,253.583C671.957,249.681 673.443,244.503 673.443,238.049C673.443,232.288 672.012,227.155 669.149,222.652C666.287,218.149 662.576,215.897 658.018,215.897C653.789,215.897 650.324,217.948 647.626,222.05C644.928,226.153 643.578,231.321 643.578,237.557Z" style="fill:white;fill-rule:nonzero;stroke-width:3.37px;stroke:white;stroke-opacity:0.54902;"/>
        <g transform="matrix(0.92368,0,0,0.875541,6.3369,-282.969)">
            <path d="M294.541,709.715C296.341,709.715 300.241,709.715 301.891,709.565C302.491,709.565 303.541,709.415 303.541,708.365C303.541,707.315 302.341,707.015 301.741,707.015C297.991,706.415 297.091,706.265 295.141,705.065C291.391,702.815 289.891,701.915 289.891,679.715C289.891,677.465 290.791,665.915 290.641,663.365C293.941,663.515 297.541,663.815 302.341,663.815C312.391,663.815 344.041,663.665 344.041,638.165C344.041,615.215 320.341,613.265 309.991,612.965L268.141,612.965C266.641,612.965 265.141,612.965 265.141,614.315C265.141,615.065 265.441,615.515 269.941,616.415C276.241,617.615 277.591,620.015 277.591,634.565L277.591,675.215C277.591,679.865 277.291,697.415 276.091,700.565C274.441,705.065 272.041,705.665 267.841,706.715C266.941,706.865 265.141,707.315 265.141,708.365C265.141,709.715 266.641,709.715 267.541,709.715L294.541,709.715ZM290.641,660.365C290.641,656.915 290.941,641.615 290.941,638.465C290.941,635.165 290.641,620.615 290.641,617.615C293.791,616.865 296.641,616.265 303.541,616.265C309.241,616.265 329.641,616.115 329.641,635.765C329.641,642.515 326.791,650.165 323.341,653.915C317.041,660.665 305.341,660.815 302.791,660.815C302.041,660.815 291.991,660.515 290.641,660.365Z" style="fill:white;fill-rule:nonzero;stroke-width:3.77px;stroke:white;stroke-opacity:0.54902;"/>
        </g>
        <g transform="matrix(0.92368,0,0,0.875541,6.3369,-282.969)">
            <path d="M410.341,710.315C411.541,706.115 413.941,696.665 413.941,693.065C413.941,692.465 413.491,691.565 412.591,691.565C411.541,691.565 411.541,691.565 409.591,696.215C405.091,707.015 395.341,707.315 387.991,707.315C385.441,707.315 376.141,707.315 375.391,701.465C375.091,699.065 375.091,683.915 375.241,679.415C383.941,679.265 391.591,678.965 392.341,685.715C392.941,689.915 392.941,690.365 394.291,690.365C395.491,690.365 395.491,689.315 395.491,687.815L395.491,670.715C395.491,668.465 395.491,667.715 394.291,667.715C393.091,667.715 392.941,668.015 392.191,671.465C390.991,676.115 384.241,676.115 375.241,675.965C375.241,671.615 374.941,656.015 376.741,652.415C378.091,649.565 380.491,649.565 390.241,649.565C397.141,649.565 404.341,655.715 407.341,661.865C407.791,662.765 408.091,663.065 408.991,663.065C409.291,663.065 410.191,662.915 410.191,662.015L407.641,646.415L355.891,646.415C354.391,646.415 352.891,646.415 352.891,647.915C352.891,648.815 353.341,649.265 354.841,649.415C358.291,649.565 361.141,649.715 363.091,654.215C364.591,658.265 364.591,666.965 364.591,676.415C364.591,682.715 364.591,697.715 362.791,702.515C361.441,706.115 357.841,706.565 356.041,706.865C352.441,707.315 351.991,707.315 351.991,708.365C351.991,709.715 353.341,709.715 355.291,709.715L366.241,709.715C370.141,709.715 370.741,709.715 374.791,709.865C377.041,710.015 386.341,710.165 389.041,710.315L410.341,710.315Z" style="fill:white;fill-rule:nonzero;stroke-width:3.77px;stroke:white;stroke-opacity:0.54902;"/>
        </g>
        <g transform="matrix(0.92368,0,0,0.875541,6.3369,-282.969)">
            <path d="M487.591,709.715C489.991,709.715 491.191,709.715 491.191,708.365C491.191,707.465 489.841,707.315 487.591,707.015C479.341,706.115 478.141,701.915 477.541,696.965C475.591,682.715 475.141,679.565 461.041,675.365C471.391,670.865 477.841,668.165 477.841,659.465C477.841,646.115 460.891,646.115 457.291,646.115C455.941,646.115 452.041,646.265 448.141,646.415C444.241,646.565 440.341,646.715 438.841,646.715L425.641,646.715C420.991,646.715 420.541,646.715 420.541,648.065C420.541,648.515 420.691,648.965 421.141,649.115C421.741,649.415 424.591,649.565 425.191,649.715C431.191,650.615 431.941,653.015 431.941,671.465C431.941,675.365 431.641,694.715 431.041,699.215C430.141,706.265 428.041,706.415 422.191,707.165C420.691,707.315 420.541,707.765 420.541,708.365C420.541,709.715 421.741,709.715 423.391,709.715L449.641,709.715C451.741,709.715 453.091,709.715 453.091,708.515C453.091,707.465 452.341,707.165 450.991,707.165C442.441,707.165 442.441,699.515 442.441,696.965C442.441,694.265 443.041,681.065 443.041,677.915C444.691,677.915 447.241,677.615 448.891,677.615C464.491,677.615 464.941,689.915 465.241,695.915C465.541,705.515 467.491,707.315 469.741,709.715L487.591,709.715ZM443.791,650.615C446.041,650.015 448.291,649.265 451.891,649.265C461.641,649.265 466.441,655.265 466.441,661.565C466.441,673.265 453.091,674.465 448.591,674.465C446.791,674.465 443.941,674.165 443.041,674.015L443.791,650.615Z" style="fill:white;fill-rule:nonzero;stroke-width:3.77px;stroke:white;stroke-opacity:0.54902;"/>
        </g>
        <g transform="matrix(0.92368,0,0,0.875541,6.3369,-282.969)">
            <path d="M552.541,710.315C553.741,706.115 556.141,696.665 556.141,693.065C556.141,692.465 555.691,691.565 554.791,691.565C553.741,691.565 553.741,691.565 551.791,696.215C547.291,707.015 537.541,707.315 530.191,707.315C527.641,707.315 518.341,707.315 517.591,701.465C517.291,699.065 517.291,683.915 517.441,679.415C526.141,679.265 533.791,678.965 534.541,685.715C535.141,689.915 535.141,690.365 536.491,690.365C537.691,690.365 537.691,689.315 537.691,687.815L537.691,670.715C537.691,668.465 537.691,667.715 536.491,667.715C535.291,667.715 535.141,668.015 534.391,671.465C533.191,676.115 526.441,676.115 517.441,675.965C517.441,671.615 517.141,656.015 518.941,652.415C520.291,649.565 522.691,649.565 532.441,649.565C539.341,649.565 546.541,655.715 549.541,661.865C549.991,662.765 550.291,663.065 551.191,663.065C551.491,663.065 552.391,662.915 552.391,662.015L549.841,646.415L498.091,646.415C496.591,646.415 495.091,646.415 495.091,647.915C495.091,648.815 495.541,649.265 497.041,649.415C500.491,649.565 503.341,649.715 505.291,654.215C506.791,658.265 506.791,666.965 506.791,676.415C506.791,682.715 506.791,697.715 504.991,702.515C503.641,706.115 500.041,706.565 498.241,706.865C494.641,707.315 494.191,707.315 494.191,708.365C494.191,709.715 495.541,709.715 497.491,709.715L508.441,709.715C512.341,709.715 512.941,709.715 516.991,709.865C519.241,710.015 528.541,710.165 531.241,710.315L552.541,710.315Z" style="fill:white;fill-rule:nonzero;stroke-width:3.77px;stroke:white;stroke-opacity:0.54902;"/>
        </g>
        <g transform="matrix(0.92368,0,0,0.875541,6.3369,-282.969)">
            <path d="M572.341,646.865C568.441,646.865 567.991,646.865 567.991,648.065C567.991,649.115 568.291,649.265 572.041,650.015C575.191,650.765 576.091,651.965 576.091,665.015C576.091,670.715 575.941,696.065 575.491,700.115C574.891,705.965 573.541,706.715 570.391,707.015C567.391,707.165 567.091,707.315 567.091,708.365C567.091,709.415 567.841,709.715 570.391,709.715L590.041,709.715C593.041,709.715 594.091,709.715 594.091,708.365C594.091,707.315 593.341,707.015 591.991,707.015C588.841,707.015 587.341,705.515 586.891,703.415C586.591,701.915 586.591,681.815 586.591,678.965C586.591,675.815 586.591,655.415 587.191,653.615C587.641,651.965 588.691,649.865 592.291,649.565C593.641,649.565 594.541,649.265 594.541,648.065C594.541,646.865 593.791,646.865 590.941,646.865L572.341,646.865Z" style="fill:white;fill-rule:nonzero;stroke-width:3.77px;stroke:white;stroke-opacity:0.54902;"/>
        </g>
        <g transform="matrix(0.92368,0,0,0.875541,6.3369,-282.969)">
            <path d="M671.941,709.715C674.341,709.715 675.541,709.715 675.541,708.365C675.541,707.465 674.191,707.315 671.941,707.015C663.691,706.115 662.491,701.915 661.891,696.965C659.941,682.715 659.491,679.565 645.391,675.365C655.741,670.865 662.191,668.165 662.191,659.465C662.191,646.115 645.241,646.115 641.641,646.115C640.291,646.115 636.391,646.265 632.491,646.415C628.591,646.565 624.691,646.715 623.191,646.715L609.991,646.715C605.341,646.715 604.891,646.715 604.891,648.065C604.891,648.515 605.041,648.965 605.491,649.115C606.091,649.415 608.941,649.565 609.541,649.715C615.541,650.615 616.291,653.015 616.291,671.465C616.291,675.365 615.991,694.715 615.391,699.215C614.491,706.265 612.391,706.415 606.541,707.165C605.041,707.315 604.891,707.765 604.891,708.365C604.891,709.715 606.091,709.715 607.741,709.715L633.991,709.715C636.091,709.715 637.441,709.715 637.441,708.515C637.441,707.465 636.691,707.165 635.341,707.165C626.791,707.165 626.791,699.515 626.791,696.965C626.791,694.265 627.391,681.065 627.391,677.915C629.041,677.915 631.591,677.615 633.241,677.615C648.841,677.615 649.291,689.915 649.591,695.915C649.891,705.515 651.841,707.315 654.091,709.715L671.941,709.715ZM628.141,650.615C630.391,650.015 632.641,649.265 636.241,649.265C645.991,649.265 650.791,655.265 650.791,661.565C650.791,673.265 637.441,674.465 632.941,674.465C631.141,674.465 628.291,674.165 627.391,674.015L628.141,650.615Z" style="fill:white;fill-rule:nonzero;stroke-width:3.77px;stroke:white;stroke-opacity:0.54902;"/>
        </g>
        <g transform="matrix(0.92368,0,0,0.875541,6.3369,-282.969)">
            <path d="M699.091,709.715C700.441,709.715 702.241,709.715 702.241,708.215C702.241,707.015 701.791,707.015 697.141,706.865C694.141,706.715 692.791,704.915 692.791,703.265C692.791,702.065 693.091,701.165 694.291,698.165C695.041,696.365 698.791,687.515 699.541,685.565C702.691,685.565 718.291,685.265 721.891,685.565C722.491,687.215 726.091,695.765 726.841,697.565C727.891,700.415 728.341,701.615 728.341,702.965C728.341,706.115 725.191,706.715 722.941,706.865C719.341,707.015 718.891,707.015 718.891,708.215C718.891,709.715 720.691,709.715 721.891,709.715L747.391,709.715C749.341,709.715 750.841,709.565 750.841,708.365C750.841,707.015 750.091,707.015 747.691,707.015C743.941,706.865 741.241,704.315 738.691,698.765C731.641,683.015 725.191,666.815 719.041,650.615C717.391,646.565 717.091,645.665 714.691,645.665C713.791,645.665 713.041,645.815 712.591,646.265C710.941,648.065 693.991,690.215 690.541,698.165C686.641,706.865 683.641,706.865 678.541,706.865C678.091,706.865 677.191,707.165 677.191,708.215C677.191,709.565 678.841,709.715 680.491,709.715L699.091,709.715ZM711.241,657.365C712.741,661.115 719.191,678.365 720.691,681.815C717.541,681.815 703.441,682.115 700.591,682.115C701.791,679.415 706.591,667.265 707.641,664.865C709.141,661.565 710.191,659.465 711.241,657.365Z" style="fill:white;fill-rule:nonzero;stroke-width:3.77px;stroke:white;stroke-opacity:0.54902;"/>
        </g>
        <g transform="matrix(0.833631,0,0,0.811,-123.879,-93.5542)">
            <path d="M550.069,602.414C553.719,609.393 556.527,613.665 558.492,615.23C560.458,616.794 562.423,617.576 564.389,617.576C567.036,617.576 569.583,616.493 572.03,614.327C572.311,614.046 572.552,613.906 572.752,613.906C573.555,613.906 573.956,614.307 573.956,615.109C573.956,615.871 572.131,617.396 568.48,619.682C564.83,621.969 561.2,623.112 557.59,623.112C555.424,623.112 553.408,622.46 551.543,621.156C549.678,619.853 547,616.152 543.51,610.055C534.525,618.76 525.901,623.112 517.638,623.112C511.982,623.112 507.209,621.387 503.318,617.937C499.427,614.488 497.482,610.155 497.482,604.941C497.482,600.047 499.066,595.585 502.235,591.553C505.404,587.522 510.759,583.1 518.3,578.286C511.04,571.106 507.409,564.808 507.409,559.393C507.409,554.821 509.034,551.11 512.283,548.262C515.532,545.414 519.263,543.99 523.474,543.99C527.205,543.99 530.534,545.184 533.462,547.57C536.391,549.957 537.855,553.076 537.855,556.926C537.855,562.101 534.285,567.737 527.145,573.834C536.571,581.575 543.751,590.22 548.685,599.766C553.859,591.744 556.447,585.506 556.447,581.054C556.447,579.048 555.815,577.434 554.551,576.21C553.288,574.987 551.533,574.375 549.287,574.375C547.321,574.375 546.338,574.014 546.338,573.292C546.338,572.45 546.76,572.029 547.602,572.029L558.192,572.45L572.391,572.33C573.514,572.33 574.076,572.711 574.076,573.473C574.076,574.195 573.354,574.556 571.91,574.556C569.022,574.636 566.555,575.699 564.509,577.745C562.464,579.79 560.037,583.842 557.229,589.899C554.541,595.715 552.155,599.887 550.069,602.414ZM525.099,571.848C530.233,567.315 532.801,562.642 532.801,557.829C532.801,554.901 531.798,552.344 529.792,550.157C527.786,547.971 525.44,546.878 522.752,546.878C520.225,546.878 518.2,547.801 516.675,549.646C515.151,551.491 514.389,553.637 514.389,556.084C514.389,560.817 517.959,566.072 525.099,571.848ZM520.285,580.272C516.194,582.959 512.975,585.807 510.628,588.816C508.282,591.824 507.109,595.494 507.109,599.827C507.109,604.8 508.713,608.982 511.922,612.372C515.131,615.761 518.861,617.456 523.113,617.456C529.291,617.456 535.648,614.167 542.187,607.588C538.898,601.612 535.999,597.029 533.492,593.84C530.985,590.651 526.583,586.128 520.285,580.272Z" style="fill:white;fill-rule:nonzero;stroke-width:4.11px;stroke:white;stroke-opacity:0.54902;"/>
        </g>
        <g transform="matrix(0.852301,0,0,0.829163,-51.6487,-110.486)">
            <path d="M520.244,615.719C518.649,618.03 516.744,619.763 514.531,620.919C512.317,622.074 509.811,622.652 507.011,622.652C503.724,622.652 501.144,621.773 499.272,620.015C497.4,618.258 496.464,615.946 496.464,613.082C496.464,610.933 497.026,608.931 498.149,607.076C499.272,605.22 500.558,603.886 502.006,603.072C503.455,602.258 506.002,601.233 509.648,599.996C514.856,598.271 517.981,596.838 519.023,595.699C520.065,594.56 520.586,593.079 520.586,591.256C520.586,588.358 519.902,586.104 518.535,584.493C517.168,582.882 515.231,582.076 512.724,582.076C510.673,582.076 509.127,582.532 508.086,583.443C507.044,584.387 506.246,586.226 505.693,588.961C505.107,591.955 503.821,593.453 501.836,593.453C501.119,593.453 500.33,593.095 499.467,592.379C498.605,591.663 498.173,590.605 498.173,589.205C498.173,586.763 499.524,584.639 502.226,582.833C504.928,581.026 508.639,580.123 513.359,580.123C517.102,580.123 520.089,580.652 522.319,581.71C524.549,582.768 525.949,583.98 526.518,585.347C527.088,586.715 527.373,589.351 527.373,593.258L527.08,606.148C527.08,611.129 527.381,614.669 527.983,616.768C528.585,618.868 529.7,619.918 531.328,619.918C531.653,619.918 532.109,619.869 532.695,619.771L533.525,619.674C534.274,619.674 534.648,619.95 534.648,620.504C534.648,621.773 531.442,622.408 525.029,622.408C523.173,622.408 521.928,621.977 521.294,621.114C520.659,620.251 520.309,618.453 520.244,615.719ZM520.244,596.676C519.267,597.945 517.054,599.491 513.603,601.314C510.185,603.072 507.727,604.748 506.23,606.344C504.733,607.971 503.984,609.924 503.984,612.203C503.984,614.254 504.594,615.995 505.815,617.427C507.036,618.86 508.558,619.576 510.38,619.576C512.268,619.576 514.043,618.998 515.703,617.843C517.363,616.687 518.592,615.214 519.389,613.424C520.187,611.633 520.586,608.98 520.586,605.465C520.586,602.828 520.472,599.898 520.244,596.676Z" style="fill:white;fill-rule:nonzero;stroke-width:4.02px;stroke:white;stroke-opacity:0.54902;"/>
        </g>
        <g transform="matrix(0.852301,0,0,0.829163,-51.6487,-110.486)">
            <path d="M570.341,609.029C570.341,612.805 568.942,616.052 566.142,618.77C563.343,621.488 560.022,622.847 556.181,622.847C553.903,622.847 551.185,622.115 548.027,620.65C546.302,619.869 545.276,619.478 544.951,619.478C544.397,619.478 543.909,619.82 543.486,620.504C542.965,621.415 542.477,621.871 542.021,621.871C541.63,621.871 541.386,621.407 541.289,620.479C541.191,619.552 541.126,617.444 541.093,614.156C541.061,611.324 541.012,609.501 540.947,608.687C540.947,607.483 541.256,606.881 541.875,606.881C542.233,606.881 542.509,607.19 542.705,607.808C543.974,611.519 545.756,614.669 548.051,617.257C550.346,619.844 553.04,621.138 556.132,621.138C558.313,621.138 560.25,620.463 561.943,619.112C563.636,617.761 564.482,615.93 564.482,613.619C564.482,610.038 561.373,606.864 555.156,604.097C550.892,602.177 548.043,600.777 546.611,599.898C545.179,599.019 544.056,597.831 543.242,596.334C542.428,594.836 542.021,593.209 542.021,591.451C542.021,588.098 543.291,585.29 545.83,583.028C548.369,580.766 551.445,579.635 555.058,579.635C557.727,579.635 560.657,580.465 563.847,582.125C564.368,582.385 564.824,582.515 565.214,582.515C565.54,582.515 565.898,582.255 566.289,581.734C566.679,581.246 566.989,581.002 567.216,581.002C567.509,581.002 567.737,581.124 567.9,581.368C568.063,581.612 568.242,583.044 568.437,585.665C568.632,588.285 568.73,590.442 568.73,592.135C568.73,593.176 568.453,593.697 567.9,593.697C567.412,593.697 567.021,593.225 566.728,592.281C566.468,591.402 565.686,589.726 564.384,587.252C563.082,584.778 561.658,583.199 560.112,582.515C558.566,581.832 557.044,581.49 555.546,581.49C553.203,581.49 551.282,582.06 549.785,583.199C548.287,584.338 547.539,585.819 547.539,587.642C547.539,588.782 547.848,589.807 548.466,590.719C549.085,591.63 549.663,592.314 550.2,592.769C550.737,593.225 553.838,594.722 559.502,597.261C563.017,598.857 565.328,600.085 566.435,600.948C567.542,601.811 568.47,602.974 569.218,604.439C569.967,605.904 570.341,607.434 570.341,609.029Z" style="fill:white;fill-rule:nonzero;stroke-width:4.02px;stroke:white;stroke-opacity:0.54902;"/>
        </g>
        <g transform="matrix(0.852301,0,0,0.829163,-51.6487,-110.486)">
            <path d="M578.545,601.558C578.545,595.829 580.612,590.784 584.746,586.422C588.88,582.06 593.958,579.879 599.98,579.879C605.644,579.879 610.519,581.832 614.604,585.738C618.689,589.644 620.732,594.527 620.732,600.386C620.732,606.311 618.584,611.511 614.287,615.987C609.99,620.463 604.977,622.701 599.248,622.701C593.584,622.701 588.717,620.642 584.648,616.524C580.579,612.406 578.545,607.418 578.545,601.558ZM586.455,601.265C586.455,606.864 587.749,611.519 590.337,615.23C592.924,618.941 596.123,620.797 599.931,620.797C603.414,620.797 606.482,619.055 609.135,615.572C611.788,612.089 613.115,607.467 613.115,601.705C613.115,596.562 611.837,591.98 609.282,587.96C606.727,583.94 603.414,581.929 599.345,581.929C595.569,581.929 592.477,583.76 590.068,587.423C587.659,591.085 586.455,595.699 586.455,601.265Z" style="fill:white;fill-rule:nonzero;stroke-width:4.02px;stroke:white;stroke-opacity:0.54902;"/>
        </g>
        <g transform="matrix(0.852301,0,0,0.829163,-51.6487,-110.486)">
            <path d="M627.373,602.291C627.373,596.334 629.285,591.125 633.11,586.666C636.935,582.206 641.598,579.976 647.099,579.976C650.647,579.976 654.049,580.847 657.304,582.589C660.56,584.33 662.187,586.503 662.187,589.107C662.187,590.116 661.878,591.003 661.259,591.768C660.641,592.533 659.925,592.916 659.111,592.916C657.288,592.916 655.888,591.451 654.912,588.521C653.414,584.029 650.794,581.783 647.05,581.783C643.339,581.783 640.516,583.386 638.579,586.593C636.642,589.799 635.673,594.006 635.673,599.215C635.673,605.334 637.024,610.331 639.726,614.205C642.428,618.079 645.683,620.015 649.492,620.015C651.998,620.015 654.423,619.039 656.767,617.086C659.078,615.165 660.429,612.821 660.82,610.054C660.983,609.11 661.341,608.638 661.894,608.638C662.48,608.638 662.773,608.931 662.773,609.517C662.773,612.707 661.3,615.702 658.354,618.502C655.408,621.301 651.461,622.701 646.513,622.701C641.11,622.701 636.569,620.65 632.89,616.549C629.212,612.447 627.373,607.694 627.373,602.291Z" style="fill:white;fill-rule:nonzero;stroke-width:4.02px;stroke:white;stroke-opacity:0.54902;"/>
        </g>
        <g transform="matrix(0.852301,0,0,0.829163,-51.6487,-110.486)">
            <path d="M677.47,556.148C678.707,556.148 679.814,556.604 680.791,557.515C681.767,558.427 682.255,559.42 682.255,560.494C682.255,561.763 681.857,562.854 681.059,563.765C680.262,564.677 679.163,565.133 677.763,565.133C676.526,565.133 675.42,564.734 674.443,563.936C673.466,563.139 672.978,562.056 672.978,560.689C672.978,559.355 673.393,558.264 674.223,557.418C675.053,556.571 676.136,556.148 677.47,556.148ZM682.89,580.025L682.841,591.011L682.939,601.265L682.939,608.98L682.89,614.84C682.89,617.183 683.273,618.673 684.038,619.307C684.803,619.942 685.95,620.292 687.48,620.357C689.27,620.455 690.166,620.829 690.166,621.48C690.166,622.001 689.824,622.261 689.14,622.261C688.88,622.261 688.587,622.245 688.261,622.213C685.234,621.822 682.418,621.627 679.814,621.627C675.647,621.627 672.767,621.757 671.171,622.017C670.846,622.082 670.52,622.115 670.195,622.115C669.414,622.115 669.023,621.822 669.023,621.236C669.023,620.65 669.935,620.243 671.757,620.015C673.58,619.788 674.744,619.389 675.249,618.819C675.753,618.249 676.005,616.63 676.005,613.961L676.298,593.746C676.298,588.342 675.892,585.144 675.078,584.151C674.264,583.158 672.685,582.629 670.341,582.564C669.56,582.564 669.17,582.304 669.17,581.783C669.17,581.49 669.3,581.262 669.56,581.099C669.821,580.937 671.757,580.725 675.371,580.465C678.984,580.204 681.491,580.058 682.89,580.025Z" style="fill:white;fill-rule:nonzero;stroke-width:4.02px;stroke:white;stroke-opacity:0.54902;"/>
        </g>
        <g transform="matrix(0.852301,0,0,0.829163,-51.6487,-110.486)">
            <path d="M720.244,615.719C718.649,618.03 716.744,619.763 714.531,620.919C712.317,622.074 709.811,622.652 707.011,622.652C703.724,622.652 701.144,621.773 699.272,620.015C697.4,618.258 696.464,615.946 696.464,613.082C696.464,610.933 697.026,608.931 698.149,607.076C699.272,605.22 700.558,603.886 702.006,603.072C703.455,602.258 706.002,601.233 709.648,599.996C714.856,598.271 717.981,596.838 719.023,595.699C720.065,594.56 720.586,593.079 720.586,591.256C720.586,588.358 719.902,586.104 718.535,584.493C717.168,582.882 715.231,582.076 712.724,582.076C710.673,582.076 709.127,582.532 708.086,583.443C707.044,584.387 706.246,586.226 705.693,588.961C705.107,591.955 703.821,593.453 701.836,593.453C701.119,593.453 700.33,593.095 699.467,592.379C698.605,591.663 698.173,590.605 698.173,589.205C698.173,586.763 699.524,584.639 702.226,582.833C704.928,581.026 708.639,580.123 713.359,580.123C717.102,580.123 720.089,580.652 722.319,581.71C724.549,582.768 725.949,583.98 726.518,585.347C727.088,586.715 727.373,589.351 727.373,593.258L727.08,606.148C727.08,611.129 727.381,614.669 727.983,616.768C728.585,618.868 729.7,619.918 731.328,619.918C731.653,619.918 732.109,619.869 732.695,619.771L733.525,619.674C734.274,619.674 734.648,619.95 734.648,620.504C734.648,621.773 731.442,622.408 725.029,622.408C723.173,622.408 721.928,621.977 721.294,621.114C720.659,620.251 720.309,618.453 720.244,615.719ZM720.244,596.676C719.267,597.945 717.054,599.491 713.603,601.314C710.185,603.072 707.727,604.748 706.23,606.344C704.733,607.971 703.984,609.924 703.984,612.203C703.984,614.254 704.594,615.995 705.815,617.427C707.036,618.86 708.558,619.576 710.38,619.576C712.268,619.576 714.043,618.998 715.703,617.843C717.363,616.687 718.592,615.214 719.389,613.424C720.187,611.633 720.586,608.98 720.586,605.465C720.586,602.828 720.472,599.898 720.244,596.676Z" style="fill:white;fill-rule:nonzero;stroke-width:4.02px;stroke:white;stroke-opacity:0.54902;"/>
        </g>
        <g transform="matrix(0.852301,0,0,0.829163,-51.6487,-110.486)">
            <path d="M777.519,555.123C777.552,562.089 777.568,571.496 777.568,583.345L777.177,614.351C777.177,617.769 778.756,619.755 781.914,620.308C782.955,620.504 783.476,620.845 783.476,621.334C783.476,621.724 783.289,621.969 782.915,622.066C782.54,622.164 780.384,622.213 776.445,622.213C774.427,622.18 772.425,622.148 770.439,622.115C770.341,620.129 770.293,618.697 770.293,617.818C770.293,616.711 770.341,615.133 770.439,613.082C768.681,616.337 766.679,618.778 764.433,620.406C762.187,622.034 759.697,622.847 756.963,622.847C753.089,622.847 749.158,621.024 745.171,617.379C741.183,613.733 739.189,608.817 739.189,602.633C739.189,596.61 741.053,591.386 744.78,586.959C748.507,582.532 753.089,580.318 758.525,580.318C761.259,580.318 763.619,580.896 765.605,582.052C767.591,583.207 769.202,584.957 770.439,587.301C770.634,583.459 770.732,579.846 770.732,576.461C770.732,566.077 770.472,560.315 769.951,559.176C769.43,558.036 768.209,557.353 766.289,557.125C765.084,556.962 764.482,556.653 764.482,556.197C764.482,555.644 765.247,555.367 766.777,555.367L777.519,555.123ZM770.634,598.873C770.634,593.339 769.699,589.197 767.827,586.446C765.955,583.695 763.131,582.32 759.355,582.32C755.416,582.32 752.454,583.923 750.468,587.13C748.483,590.336 747.49,595.146 747.49,601.558C747.49,608.036 748.67,612.675 751.03,615.474C753.39,618.274 755.953,619.674 758.72,619.674C761.487,619.674 764.165,618.201 766.753,615.255C769.34,612.309 770.634,606.848 770.634,598.873Z" style="fill:white;fill-rule:nonzero;stroke-width:4.02px;stroke:white;stroke-opacity:0.54902;"/>
        </g>
        <g transform="matrix(0.852301,0,0,0.829163,-51.6487,-110.486)">
            <path d="M789.97,601.558C789.97,595.829 792.037,590.784 796.171,586.422C800.306,582.06 805.384,579.879 811.406,579.879C817.07,579.879 821.945,581.832 826.03,585.738C830.115,589.644 832.158,594.527 832.158,600.386C832.158,606.311 830.009,611.511 825.713,615.987C821.416,620.463 816.403,622.701 810.673,622.701C805.009,622.701 800.143,620.642 796.074,616.524C792.005,612.406 789.97,607.418 789.97,601.558ZM797.88,601.265C797.88,606.864 799.174,611.519 801.762,615.23C804.35,618.941 807.548,620.797 811.357,620.797C814.84,620.797 817.908,619.055 820.561,615.572C823.214,612.089 824.541,607.467 824.541,601.705C824.541,596.562 823.263,591.98 820.708,587.96C818.152,583.94 814.84,581.929 810.771,581.929C806.995,581.929 803.903,583.76 801.494,587.423C799.085,591.085 797.88,595.699 797.88,601.265Z" style="fill:white;fill-rule:nonzero;stroke-width:4.02px;stroke:white;stroke-opacity:0.54902;"/>
        </g>
        <g transform="matrix(0.852301,0,0,0.829163,-51.6487,-110.486)">
            <path d="M870.341,609.029C870.341,612.805 868.942,616.052 866.142,618.77C863.343,621.488 860.022,622.847 856.181,622.847C853.903,622.847 851.185,622.115 848.027,620.65C846.302,619.869 845.276,619.478 844.951,619.478C844.397,619.478 843.909,619.82 843.486,620.504C842.965,621.415 842.477,621.871 842.021,621.871C841.63,621.871 841.386,621.407 841.289,620.479C841.191,619.552 841.126,617.444 841.093,614.156C841.061,611.324 841.012,609.501 840.947,608.687C840.947,607.483 841.256,606.881 841.875,606.881C842.233,606.881 842.509,607.19 842.705,607.808C843.974,611.519 845.756,614.669 848.051,617.257C850.346,619.844 853.04,621.138 856.132,621.138C858.313,621.138 860.25,620.463 861.943,619.112C863.636,617.761 864.482,615.93 864.482,613.619C864.482,610.038 861.373,606.864 855.156,604.097C850.892,602.177 848.043,600.777 846.611,599.898C845.179,599.019 844.056,597.831 843.242,596.334C842.428,594.836 842.021,593.209 842.021,591.451C842.021,588.098 843.291,585.29 845.83,583.028C848.369,580.766 851.445,579.635 855.058,579.635C857.727,579.635 860.657,580.465 863.847,582.125C864.368,582.385 864.824,582.515 865.214,582.515C865.54,582.515 865.898,582.255 866.289,581.734C866.679,581.246 866.989,581.002 867.216,581.002C867.509,581.002 867.737,581.124 867.9,581.368C868.063,581.612 868.242,583.044 868.437,585.665C868.632,588.285 868.73,590.442 868.73,592.135C868.73,593.176 868.453,593.697 867.9,593.697C867.412,593.697 867.021,593.225 866.728,592.281C866.468,591.402 865.686,589.726 864.384,587.252C863.082,584.778 861.658,583.199 860.112,582.515C858.566,581.832 857.044,581.49 855.546,581.49C853.203,581.49 851.282,582.06 849.785,583.199C848.287,584.338 847.539,585.819 847.539,587.642C847.539,588.782 847.848,589.807 848.466,590.719C849.085,591.63 849.663,592.314 850.2,592.769C850.737,593.225 853.838,594.722 859.502,597.261C863.017,598.857 865.328,600.085 866.435,600.948C867.542,601.811 868.47,602.974 869.218,604.439C869.967,605.904 870.341,607.434 870.341,609.029Z" style="fill:white;fill-rule:nonzero;stroke-width:4.02px;stroke:white;stroke-opacity:0.54902;"/>
        </g>
    </g>
</svg>
