<?xml version="1.0" encoding="UTF-8"?>
<svg width="638px" height="766px" viewBox="0 0 638 766" version="1.1" xmlns="http://www.w3.org/2000/svg" xmlns:xlink="http://www.w3.org/1999/xlink" xmlns:sketch="http://www.bohemiancoding.com/sketch/ns">
    <!-- Generator: Sketch 3.4.4 (17249) - http://www.bohemiancoding.com/sketch -->
    <title>Untitled 2</title>
    <desc>Created with Sketch.</desc>
    <defs></defs>
    <g id="Page-1" stroke="none" stroke-width="1" fill="none" fill-rule="evenodd" sketch:type="MSPage">
        <g id="dfstar" sketch:type="MSLayerGroup" fill="#000000">
            <g id="Page-1" sketch:type="MSShapeGroup">
                <g id="dfstar-chock">
                    <path d="M206.892017,398.956397 C206.892017,416.343792 205.710437,442.424439 203.346396,477.198336 C202.164816,494.199603 201.573585,511.393041 201.573585,528.780436 C201.573585,541.916845 202.262766,570.219517 203.642011,613.687559 C205.020373,657.154707 207.777981,684.2981 211.914833,695.116845 C216.050802,705.935589 225.110755,716.367312 239.095574,726.412905 C253.07951,736.459393 268.147959,741.868765 284.299154,742.641022 C302.419059,743.800301 311.479895,747.85733 311.479895,754.81211 C311.479895,760.221482 308.722288,763.408828 303.207073,764.375043 C297.691859,765.341258 276.814346,765.823918 240.572769,765.823918 L78.0769046,765.244726 C32.3818091,765.244726 8.05662517,764.568107 5.10223513,763.215764 C2.14784509,761.863421 0.670650069,759.255267 0.670650069,755.392196 C0.670650069,749.209673 8.15545781,744.573452 23.1241909,741.481743 C49.5178008,735.686243 67.9333223,726.606863 78.3725201,714.242712 C88.8117178,701.87856 95.2128963,675.314359 97.5769378,634.551897 C99.9400968,593.788541 101.121676,546.747025 101.121676,493.426453 L99.3497483,338.681939 L101.121676,171.765445 C101.121676,112.649372 96.9857068,74.8811925 88.7137676,58.4600117 C80.4409461,42.0388308 64.289751,31.7027468 40.2601826,27.4526534 C14.2610207,22.8164317 1.26099862,17.2139953 1.26099862,10.6453442 C1.26099862,4.07669312 7.17066113,0.792814469 18.9882213,0.792814469 L135.984891,1.372007 L323.888686,0.213621937 C447.582149,0.213621937 530.799234,19.1455309 573.540822,57.0111365 C616.281527,94.8758483 637.652321,142.207855 637.652321,199.00537 C637.652321,266.621629 609.683566,317.430579 553.746055,351.432219 C497.807663,385.43386 413.703732,402.434233 301.434263,402.434233 C274.253521,402.434233 242.739145,401.274954 206.892017,398.956397 L206.892017,398.956397 Z M206.892017,375.774394 C264.79912,377.70593 297.691859,378.672145 305.571115,378.672145 C345.751878,378.672145 383.5686,371.910429 419.022163,358.386999 C454.475726,344.863568 480.376938,320.521393 496.724916,285.361368 C513.072893,250.200448 521.246882,215.426551 521.246882,181.038782 C521.246882,137.377676 506.178434,100.381753 476.043303,70.0510128 C445.908172,39.720273 391.643757,24.5549032 313.252705,24.5549032 C272.677494,24.5549032 237.223931,28.8049965 206.892017,37.306077 C206.497568,51.2156359 206.300786,59.9088868 206.300786,63.3867235 L208.664827,196.686812 L206.300786,338.681939 C206.300786,345.636719 206.497568,358.00087 206.892017,375.774394 L206.892017,375.774394 Z" id="Shape"></path>
                </g>
            </g>
        </g>
    </g>
</svg>