<?xml version="1.0" encoding="utf-8"?>
<!-- Generator: Adobe Illustrator 18.0.0, SVG Export Plug-In . SVG Version: 6.00 Build 0)  -->
<!DOCTYPE svg PUBLIC "-//W3C//DTD SVG 1.1//EN" "http://www.w3.org/Graphics/SVG/1.1/DTD/svg11.dtd">
<svg version="1.1" id="Layer_1" xmlns="http://www.w3.org/2000/svg" xmlns:xlink="http://www.w3.org/1999/xlink" x="0px" y="0px"
	 viewBox="15.5 16.5 35 35" enable-background="new 15.5 16.5 35 35" xml:space="preserve">
<path fill="#C69C70" d="M35.4,27.2c-1.5,0.6-2.5,2-2.4,3.6l0,0.6l-0.6-0.1c-2.2-0.3-4.2-1.2-5.8-2.9l-0.8-0.8l-0.2,0.6
	c-0.4,1.3-0.2,2.7,0.8,3.7c0.5,0.5,0.4,0.6-0.5,0.3c-0.3-0.1-0.6-0.2-0.6-0.1c-0.1,0.1,0.2,1.2,0.4,1.7c0.3,0.6,1,1.2,1.7,1.6
	l0.6,0.3l-0.7,0c-0.7,0-0.7,0-0.6,0.3c0.2,0.8,1.2,1.7,2.3,2l0.8,0.3l-0.7,0.4c-1,0.6-2.1,0.9-3.3,0.9c-0.6,0-1,0.1-1,0.1
	c0,0.1,1.5,0.8,2.4,1.1c2.6,0.8,5.7,0.5,8-0.9c1.7-1,3.3-2.9,4.1-4.8c0.4-1,0.8-2.8,0.8-3.7c0-0.6,0-0.6,0.7-1.3
	c0.4-0.4,0.8-0.8,0.9-1c0.1-0.2,0.1-0.2-0.5,0c-1,0.4-1.2,0.3-0.7-0.2c0.4-0.4,0.8-1.1,0.8-1.3c0,0-0.2,0-0.4,0.1
	c-0.2,0.1-0.7,0.3-1.1,0.4l-0.7,0.2l-0.6-0.4c-0.3-0.2-0.8-0.5-1-0.5C36.9,26.9,36,27,35.4,27.2z M15.5,16.5h35v35h-35V16.5z"/>
</svg>
